<mxfile host="app.diagrams.net" modified="2021-10-06T11:54:46.927Z" agent="5.0 (Windows NT 10.0; Win64; x64) AppleWebKit/537.36 (KHTML, like Gecko) Chrome/94.0.4606.61 Safari/537.36" etag="qwfe3CFLZpLlaPnVaVq2" version="15.4.3" type="github" pages="3">
  <diagram id="rb-pypnUGAUjR04Ts9U1" name="Page-1">
    <mxGraphModel dx="2157" dy="1091" grid="1" gridSize="10" guides="1" tooltips="1" connect="1" arrows="1" fold="1" page="1" pageScale="1" pageWidth="827" pageHeight="1169" math="0" shadow="0">
      <root>
        <mxCell id="hMW5H2m9D7a2tleL5P6j-0" />
        <mxCell id="hMW5H2m9D7a2tleL5P6j-1" parent="hMW5H2m9D7a2tleL5P6j-0" />
        <mxCell id="hMW5H2m9D7a2tleL5P6j-2" value="" style="ellipse;whiteSpace=wrap;html=1;rounded=0;shadow=0;labelBackgroundColor=none;strokeWidth=1;fontFamily=Verdana;fontSize=8;align=center;" parent="hMW5H2m9D7a2tleL5P6j-1" vertex="1">
          <mxGeometry x="181" y="87" width="30" height="30" as="geometry" />
        </mxCell>
        <mxCell id="hMW5H2m9D7a2tleL5P6j-3" value="Landing" style="swimlane;labelBackgroundColor=none;labelBorderColor=none;fillColor=#FFCCCC;" parent="hMW5H2m9D7a2tleL5P6j-1" vertex="1">
          <mxGeometry x="40" y="40" width="100" height="120" as="geometry">
            <mxRectangle x="40" y="40" width="130" height="23" as="alternateBounds" />
          </mxGeometry>
        </mxCell>
        <mxCell id="hMW5H2m9D7a2tleL5P6j-4" value="" style="line;strokeWidth=1;html=1;" parent="hMW5H2m9D7a2tleL5P6j-1" vertex="1">
          <mxGeometry x="141" y="96" width="40" height="10" as="geometry" />
        </mxCell>
        <mxCell id="hMW5H2m9D7a2tleL5P6j-5" style="edgeStyle=orthogonalEdgeStyle;rounded=0;html=1;labelBackgroundColor=none;startArrow=none;startFill=0;startSize=5;endArrow=classicThin;endFill=1;endSize=5;jettySize=auto;orthogonalLoop=1;strokeWidth=1;fontFamily=Verdana;fontSize=8" parent="hMW5H2m9D7a2tleL5P6j-1" edge="1">
          <mxGeometry relative="1" as="geometry">
            <mxPoint x="211" y="100.79999999999995" as="sourcePoint" />
            <mxPoint x="261" y="101" as="targetPoint" />
            <Array as="points">
              <mxPoint x="251" y="101" />
              <mxPoint x="251" y="101" />
            </Array>
          </mxGeometry>
        </mxCell>
        <mxCell id="hMW5H2m9D7a2tleL5P6j-6" value="" style="ellipse;whiteSpace=wrap;html=1;rounded=0;shadow=0;labelBackgroundColor=none;strokeWidth=1;fontFamily=Verdana;fontSize=8;align=center;" parent="hMW5H2m9D7a2tleL5P6j-1" vertex="1">
          <mxGeometry x="401" y="87" width="30" height="30" as="geometry" />
        </mxCell>
        <mxCell id="hMW5H2m9D7a2tleL5P6j-7" value="Book Flight" style="swimlane;startSize=23;fillColor=#FFE6CC;" parent="hMW5H2m9D7a2tleL5P6j-1" vertex="1">
          <mxGeometry x="261" y="38.5" width="100" height="120" as="geometry">
            <mxRectangle x="310" y="160" width="130" height="23" as="alternateBounds" />
          </mxGeometry>
        </mxCell>
        <mxCell id="R05Kf0UMh7dOOsXil6bq-0" value="Enter details prompt" style="text;html=1;strokeColor=none;fillColor=none;align=center;verticalAlign=middle;whiteSpace=wrap;rounded=0;labelBackgroundColor=none;labelBorderColor=none;" parent="hMW5H2m9D7a2tleL5P6j-7" vertex="1">
          <mxGeometry x="20" y="65" width="60" height="30" as="geometry" />
        </mxCell>
        <mxCell id="hMW5H2m9D7a2tleL5P6j-8" value="" style="line;strokeWidth=1;html=1;" parent="hMW5H2m9D7a2tleL5P6j-1" vertex="1">
          <mxGeometry x="361" y="96" width="40" height="10" as="geometry" />
        </mxCell>
        <mxCell id="hMW5H2m9D7a2tleL5P6j-9" style="edgeStyle=orthogonalEdgeStyle;rounded=0;html=1;labelBackgroundColor=none;startArrow=none;startFill=0;startSize=5;endArrow=classicThin;endFill=1;endSize=5;jettySize=auto;orthogonalLoop=1;strokeWidth=1;fontFamily=Verdana;fontSize=8" parent="hMW5H2m9D7a2tleL5P6j-1" edge="1">
          <mxGeometry relative="1" as="geometry">
            <mxPoint x="431" y="100.79999999999995" as="sourcePoint" />
            <mxPoint x="481" y="101" as="targetPoint" />
            <Array as="points">
              <mxPoint x="471" y="101" />
              <mxPoint x="471" y="101" />
            </Array>
          </mxGeometry>
        </mxCell>
        <mxCell id="hMW5H2m9D7a2tleL5P6j-10" value="" style="ellipse;whiteSpace=wrap;html=1;rounded=0;shadow=0;labelBackgroundColor=none;strokeWidth=1;fontFamily=Verdana;fontSize=8;align=center;" parent="hMW5H2m9D7a2tleL5P6j-1" vertex="1">
          <mxGeometry x="620" y="87" width="30" height="30" as="geometry" />
        </mxCell>
        <mxCell id="hMW5H2m9D7a2tleL5P6j-11" value="Choose Airport" style="swimlane;fillColor=#FFFFCC;" parent="hMW5H2m9D7a2tleL5P6j-1" vertex="1">
          <mxGeometry x="480" y="40" width="100" height="120" as="geometry">
            <mxRectangle x="310" y="160" width="130" height="23" as="alternateBounds" />
          </mxGeometry>
        </mxCell>
        <mxCell id="R05Kf0UMh7dOOsXil6bq-1" value="Select Airport&lt;span style=&quot;color: rgba(0 , 0 , 0 , 0) ; font-family: monospace ; font-size: 0px&quot;&gt;%3CmxGraphModel%3E%3Croot%3E%3CmxCell%20id%3D%220%22%2F%3E%3CmxCell%20id%3D%221%22%20parent%3D%220%22%2F%3E%3CmxCell%20id%3D%222%22%20value%3D%22Enter%20details%20prompt%22%20style%3D%22text%3Bhtml%3D1%3BstrokeColor%3Dnone%3BfillColor%3Dnone%3Balign%3Dcenter%3BverticalAlign%3Dmiddle%3BwhiteSpace%3Dwrap%3Brounded%3D0%3BlabelBackgroundColor%3Dnone%3BlabelBorderColor%3Dnone%3B%22%20vertex%3D%221%22%20parent%3D%221%22%3E%3CmxGeometry%20x%3D%22310%22%20y%3D%22107%22%20width%3D%2260%22%20height%3D%2230%22%20as%3D%22geometry%22%2F%3E%3C%2FmxCell%3E%3C%2Froot%3E%3C%2FmxGraphModel%3E&lt;/span&gt;" style="text;html=1;strokeColor=none;fillColor=none;align=center;verticalAlign=middle;whiteSpace=wrap;rounded=0;labelBackgroundColor=none;labelBorderColor=none;" parent="hMW5H2m9D7a2tleL5P6j-11" vertex="1">
          <mxGeometry x="22" y="61" width="60" height="30" as="geometry" />
        </mxCell>
        <mxCell id="hMW5H2m9D7a2tleL5P6j-12" value="" style="line;strokeWidth=1;html=1;" parent="hMW5H2m9D7a2tleL5P6j-1" vertex="1">
          <mxGeometry x="580" y="96" width="40" height="10" as="geometry" />
        </mxCell>
        <mxCell id="hMW5H2m9D7a2tleL5P6j-13" style="edgeStyle=orthogonalEdgeStyle;rounded=0;html=1;labelBackgroundColor=none;startArrow=none;startFill=0;startSize=5;endArrow=classicThin;endFill=1;endSize=5;jettySize=auto;orthogonalLoop=1;strokeWidth=1;fontFamily=Verdana;fontSize=8" parent="hMW5H2m9D7a2tleL5P6j-1" edge="1">
          <mxGeometry relative="1" as="geometry">
            <mxPoint x="650" y="100.79999999999995" as="sourcePoint" />
            <mxPoint x="700" y="101" as="targetPoint" />
            <Array as="points">
              <mxPoint x="690" y="101" />
              <mxPoint x="690" y="101" />
            </Array>
          </mxGeometry>
        </mxCell>
        <mxCell id="hMW5H2m9D7a2tleL5P6j-14" value="" style="ellipse;whiteSpace=wrap;html=1;rounded=0;shadow=0;labelBackgroundColor=none;strokeWidth=1;fontFamily=Verdana;fontSize=8;align=center;" parent="hMW5H2m9D7a2tleL5P6j-1" vertex="1">
          <mxGeometry x="841" y="87" width="30" height="30" as="geometry" />
        </mxCell>
        <mxCell id="hMW5H2m9D7a2tleL5P6j-15" value="Choose Airport" style="swimlane;fillColor=#FFFFCC;" parent="hMW5H2m9D7a2tleL5P6j-1" vertex="1">
          <mxGeometry x="701" y="40" width="100" height="120" as="geometry">
            <mxRectangle x="310" y="160" width="130" height="23" as="alternateBounds" />
          </mxGeometry>
        </mxCell>
        <mxCell id="R05Kf0UMh7dOOsXil6bq-2" value="Splash page: &#39;Allow location services&#39;" style="text;html=1;strokeColor=none;fillColor=none;align=center;verticalAlign=middle;whiteSpace=wrap;rounded=0;labelBackgroundColor=none;labelBorderColor=none;" parent="hMW5H2m9D7a2tleL5P6j-15" vertex="1">
          <mxGeometry x="15" y="65" width="80" height="30" as="geometry" />
        </mxCell>
        <mxCell id="hMW5H2m9D7a2tleL5P6j-16" value="" style="line;strokeWidth=1;html=1;" parent="hMW5H2m9D7a2tleL5P6j-1" vertex="1">
          <mxGeometry x="801" y="96" width="40" height="10" as="geometry" />
        </mxCell>
        <mxCell id="hMW5H2m9D7a2tleL5P6j-17" style="edgeStyle=orthogonalEdgeStyle;rounded=0;html=1;labelBackgroundColor=none;startArrow=none;startFill=0;startSize=5;endArrow=classicThin;endFill=1;endSize=5;jettySize=auto;orthogonalLoop=1;strokeWidth=1;fontFamily=Verdana;fontSize=8" parent="hMW5H2m9D7a2tleL5P6j-1" edge="1">
          <mxGeometry relative="1" as="geometry">
            <mxPoint x="871" y="100.79999999999995" as="sourcePoint" />
            <mxPoint x="921" y="101" as="targetPoint" />
            <Array as="points">
              <mxPoint x="911" y="101" />
              <mxPoint x="911" y="101" />
            </Array>
          </mxGeometry>
        </mxCell>
        <mxCell id="hMW5H2m9D7a2tleL5P6j-18" value="" style="ellipse;whiteSpace=wrap;html=1;rounded=0;shadow=0;labelBackgroundColor=none;strokeWidth=1;fontFamily=Verdana;fontSize=8;align=center;" parent="hMW5H2m9D7a2tleL5P6j-1" vertex="1">
          <mxGeometry x="1061" y="89.5" width="30" height="30" as="geometry" />
        </mxCell>
        <mxCell id="hMW5H2m9D7a2tleL5P6j-19" value="Choose Airport" style="swimlane;fillColor=#FFFFCC;" parent="hMW5H2m9D7a2tleL5P6j-1" vertex="1">
          <mxGeometry x="920" y="40.5" width="100" height="120" as="geometry">
            <mxRectangle x="310" y="160" width="130" height="23" as="alternateBounds" />
          </mxGeometry>
        </mxCell>
        <mxCell id="R05Kf0UMh7dOOsXil6bq-4" value="Select from results" style="text;html=1;strokeColor=none;fillColor=none;align=center;verticalAlign=middle;whiteSpace=wrap;rounded=0;labelBackgroundColor=none;labelBorderColor=none;" parent="hMW5H2m9D7a2tleL5P6j-19" vertex="1">
          <mxGeometry x="17" y="65" width="60" height="30" as="geometry" />
        </mxCell>
        <mxCell id="hMW5H2m9D7a2tleL5P6j-20" value="" style="line;strokeWidth=1;html=1;" parent="hMW5H2m9D7a2tleL5P6j-1" vertex="1">
          <mxGeometry x="1021" y="98.5" width="40" height="10" as="geometry" />
        </mxCell>
        <mxCell id="hMW5H2m9D7a2tleL5P6j-21" style="edgeStyle=orthogonalEdgeStyle;rounded=0;html=1;labelBackgroundColor=none;startArrow=none;startFill=0;startSize=5;endArrow=classicThin;endFill=1;endSize=5;jettySize=auto;orthogonalLoop=1;strokeWidth=1;fontFamily=Verdana;fontSize=8" parent="hMW5H2m9D7a2tleL5P6j-1" edge="1">
          <mxGeometry relative="1" as="geometry">
            <mxPoint x="1091" y="103.29999999999995" as="sourcePoint" />
            <mxPoint x="1141" y="103.5" as="targetPoint" />
            <Array as="points">
              <mxPoint x="1131" y="103.5" />
              <mxPoint x="1131" y="103.5" />
            </Array>
          </mxGeometry>
        </mxCell>
        <mxCell id="hMW5H2m9D7a2tleL5P6j-22" value="" style="ellipse;whiteSpace=wrap;html=1;rounded=0;shadow=0;labelBackgroundColor=none;strokeWidth=1;fontFamily=Verdana;fontSize=8;align=center;" parent="hMW5H2m9D7a2tleL5P6j-1" vertex="1">
          <mxGeometry x="181" y="248" width="30" height="30" as="geometry" />
        </mxCell>
        <mxCell id="hMW5H2m9D7a2tleL5P6j-23" value="Book Flight" style="swimlane;fillColor=#FFE6CC;" parent="hMW5H2m9D7a2tleL5P6j-1" vertex="1">
          <mxGeometry x="40" y="200" width="100" height="120" as="geometry">
            <mxRectangle x="310" y="160" width="130" height="23" as="alternateBounds" />
          </mxGeometry>
        </mxCell>
        <mxCell id="R05Kf0UMh7dOOsXil6bq-5" value="Departure selected&lt;br&gt;&lt;br&gt;&amp;nbsp;Enter details" style="text;html=1;strokeColor=none;fillColor=none;align=center;verticalAlign=middle;whiteSpace=wrap;rounded=0;labelBackgroundColor=none;labelBorderColor=none;" parent="hMW5H2m9D7a2tleL5P6j-23" vertex="1">
          <mxGeometry x="22" y="62" width="60" height="35" as="geometry" />
        </mxCell>
        <mxCell id="hMW5H2m9D7a2tleL5P6j-24" value="" style="line;strokeWidth=1;html=1;" parent="hMW5H2m9D7a2tleL5P6j-1" vertex="1">
          <mxGeometry x="141" y="257" width="40" height="10" as="geometry" />
        </mxCell>
        <mxCell id="hMW5H2m9D7a2tleL5P6j-25" style="edgeStyle=orthogonalEdgeStyle;rounded=0;html=1;labelBackgroundColor=none;startArrow=none;startFill=0;startSize=5;endArrow=classicThin;endFill=1;endSize=5;jettySize=auto;orthogonalLoop=1;strokeWidth=1;fontFamily=Verdana;fontSize=8" parent="hMW5H2m9D7a2tleL5P6j-1" edge="1">
          <mxGeometry relative="1" as="geometry">
            <mxPoint x="211" y="261.79999999999995" as="sourcePoint" />
            <mxPoint x="261" y="262" as="targetPoint" />
            <Array as="points">
              <mxPoint x="251" y="262" />
              <mxPoint x="251" y="262" />
            </Array>
          </mxGeometry>
        </mxCell>
        <mxCell id="hMW5H2m9D7a2tleL5P6j-27" value="Choose Airport" style="swimlane;fillColor=#FFFFCC;" parent="hMW5H2m9D7a2tleL5P6j-1" vertex="1">
          <mxGeometry x="260" y="200" width="100" height="120" as="geometry">
            <mxRectangle x="310" y="160" width="130" height="23" as="alternateBounds" />
          </mxGeometry>
        </mxCell>
        <mxCell id="R05Kf0UMh7dOOsXil6bq-6" value="Select airport" style="text;html=1;strokeColor=none;fillColor=none;align=center;verticalAlign=middle;whiteSpace=wrap;rounded=0;labelBackgroundColor=none;labelBorderColor=none;" parent="hMW5H2m9D7a2tleL5P6j-27" vertex="1">
          <mxGeometry x="22" y="67" width="60" height="30" as="geometry" />
        </mxCell>
        <mxCell id="hMW5H2m9D7a2tleL5P6j-30" value="" style="ellipse;whiteSpace=wrap;html=1;rounded=0;shadow=0;labelBackgroundColor=none;strokeWidth=1;fontFamily=Verdana;fontSize=8;align=center;" parent="hMW5H2m9D7a2tleL5P6j-1" vertex="1">
          <mxGeometry x="620" y="250" width="30" height="30" as="geometry" />
        </mxCell>
        <mxCell id="hMW5H2m9D7a2tleL5P6j-31" value="Choose Airport" style="swimlane;fillColor=#FFFFCC;" parent="hMW5H2m9D7a2tleL5P6j-1" vertex="1">
          <mxGeometry x="480" y="202" width="100" height="120" as="geometry">
            <mxRectangle x="310" y="160" width="130" height="23" as="alternateBounds" />
          </mxGeometry>
        </mxCell>
        <mxCell id="R05Kf0UMh7dOOsXil6bq-7" value="Insert text in prompt box" style="text;html=1;strokeColor=none;fillColor=none;align=center;verticalAlign=middle;whiteSpace=wrap;rounded=0;labelBackgroundColor=none;labelBorderColor=none;" parent="hMW5H2m9D7a2tleL5P6j-31" vertex="1">
          <mxGeometry x="22" y="59" width="60" height="30" as="geometry" />
        </mxCell>
        <mxCell id="hMW5H2m9D7a2tleL5P6j-32" value="" style="line;strokeWidth=1;html=1;" parent="hMW5H2m9D7a2tleL5P6j-1" vertex="1">
          <mxGeometry x="580" y="259" width="40" height="10" as="geometry" />
        </mxCell>
        <mxCell id="hMW5H2m9D7a2tleL5P6j-33" style="edgeStyle=orthogonalEdgeStyle;rounded=0;html=1;labelBackgroundColor=none;startArrow=none;startFill=0;startSize=5;endArrow=classicThin;endFill=1;endSize=5;jettySize=auto;orthogonalLoop=1;strokeWidth=1;fontFamily=Verdana;fontSize=8" parent="hMW5H2m9D7a2tleL5P6j-1" edge="1">
          <mxGeometry relative="1" as="geometry">
            <mxPoint x="650" y="263.79999999999995" as="sourcePoint" />
            <mxPoint x="700" y="264" as="targetPoint" />
            <Array as="points">
              <mxPoint x="690" y="264" />
              <mxPoint x="690" y="264" />
            </Array>
          </mxGeometry>
        </mxCell>
        <mxCell id="hMW5H2m9D7a2tleL5P6j-34" value="" style="ellipse;whiteSpace=wrap;html=1;rounded=0;shadow=0;labelBackgroundColor=none;strokeWidth=1;fontFamily=Verdana;fontSize=8;align=center;" parent="hMW5H2m9D7a2tleL5P6j-1" vertex="1">
          <mxGeometry x="839" y="251" width="30" height="30" as="geometry" />
        </mxCell>
        <mxCell id="hMW5H2m9D7a2tleL5P6j-35" value="Choose Airport" style="swimlane;fillColor=#FFFFCC;" parent="hMW5H2m9D7a2tleL5P6j-1" vertex="1">
          <mxGeometry x="699" y="202" width="100" height="120" as="geometry">
            <mxRectangle x="310" y="160" width="130" height="23" as="alternateBounds" />
          </mxGeometry>
        </mxCell>
        <mxCell id="R05Kf0UMh7dOOsXil6bq-9" value="London text autocompleted. Prompt to select London airport" style="text;html=1;strokeColor=none;fillColor=none;align=center;verticalAlign=middle;whiteSpace=wrap;rounded=0;labelBackgroundColor=none;labelBorderColor=none;" parent="hMW5H2m9D7a2tleL5P6j-35" vertex="1">
          <mxGeometry x="20" y="65" width="70" height="30" as="geometry" />
        </mxCell>
        <mxCell id="hMW5H2m9D7a2tleL5P6j-36" value="" style="line;strokeWidth=1;html=1;" parent="hMW5H2m9D7a2tleL5P6j-1" vertex="1">
          <mxGeometry x="799" y="260" width="40" height="10" as="geometry" />
        </mxCell>
        <mxCell id="hMW5H2m9D7a2tleL5P6j-37" style="edgeStyle=orthogonalEdgeStyle;rounded=0;html=1;labelBackgroundColor=none;startArrow=none;startFill=0;startSize=5;endArrow=classicThin;endFill=1;endSize=5;jettySize=auto;orthogonalLoop=1;strokeWidth=1;fontFamily=Verdana;fontSize=8" parent="hMW5H2m9D7a2tleL5P6j-1" edge="1">
          <mxGeometry relative="1" as="geometry">
            <mxPoint x="869" y="264.79999999999995" as="sourcePoint" />
            <mxPoint x="919" y="265" as="targetPoint" />
            <Array as="points">
              <mxPoint x="909" y="265" />
              <mxPoint x="909" y="265" />
            </Array>
          </mxGeometry>
        </mxCell>
        <mxCell id="hMW5H2m9D7a2tleL5P6j-38" value="" style="ellipse;whiteSpace=wrap;html=1;rounded=0;shadow=0;labelBackgroundColor=none;strokeWidth=1;fontFamily=Verdana;fontSize=8;align=center;" parent="hMW5H2m9D7a2tleL5P6j-1" vertex="1">
          <mxGeometry x="1060" y="250.5" width="30" height="30" as="geometry" />
        </mxCell>
        <mxCell id="hMW5H2m9D7a2tleL5P6j-39" value="Book Flight" style="swimlane;fillColor=#FFE6CC;" parent="hMW5H2m9D7a2tleL5P6j-1" vertex="1">
          <mxGeometry x="921" y="182" width="100" height="160" as="geometry">
            <mxRectangle x="310" y="160" width="130" height="23" as="alternateBounds" />
          </mxGeometry>
        </mxCell>
        <mxCell id="R05Kf0UMh7dOOsXil6bq-11" value="Departure selected&lt;br&gt;&lt;br&gt;Arrival selected&lt;br&gt;&lt;br&gt;&amp;nbsp;Enter details" style="text;html=1;strokeColor=none;fillColor=none;align=center;verticalAlign=middle;whiteSpace=wrap;rounded=0;labelBackgroundColor=none;labelBorderColor=none;" parent="hMW5H2m9D7a2tleL5P6j-39" vertex="1">
          <mxGeometry x="20" y="70" width="60" height="35" as="geometry" />
        </mxCell>
        <mxCell id="hMW5H2m9D7a2tleL5P6j-40" value="" style="line;strokeWidth=1;html=1;" parent="hMW5H2m9D7a2tleL5P6j-1" vertex="1">
          <mxGeometry x="1020" y="259.5" width="40" height="10" as="geometry" />
        </mxCell>
        <mxCell id="hMW5H2m9D7a2tleL5P6j-41" style="edgeStyle=orthogonalEdgeStyle;rounded=0;html=1;labelBackgroundColor=none;startArrow=none;startFill=0;startSize=5;endArrow=classicThin;endFill=1;endSize=5;jettySize=auto;orthogonalLoop=1;strokeWidth=1;fontFamily=Verdana;fontSize=8" parent="hMW5H2m9D7a2tleL5P6j-1" edge="1">
          <mxGeometry relative="1" as="geometry">
            <mxPoint x="1090" y="264.29999999999995" as="sourcePoint" />
            <mxPoint x="1140" y="264.5" as="targetPoint" />
            <Array as="points">
              <mxPoint x="1130" y="264.5" />
              <mxPoint x="1130" y="264.5" />
            </Array>
          </mxGeometry>
        </mxCell>
        <mxCell id="hMW5H2m9D7a2tleL5P6j-42" value="" style="ellipse;whiteSpace=wrap;html=1;rounded=0;shadow=0;labelBackgroundColor=none;strokeWidth=1;fontFamily=Verdana;fontSize=8;align=center;" parent="hMW5H2m9D7a2tleL5P6j-1" vertex="1">
          <mxGeometry x="182" y="410.5" width="30" height="30" as="geometry" />
        </mxCell>
        <mxCell id="hMW5H2m9D7a2tleL5P6j-43" value="Book Flight" style="swimlane;fillColor=#FFE6CC;" parent="hMW5H2m9D7a2tleL5P6j-1" vertex="1">
          <mxGeometry x="41" y="362" width="100" height="120" as="geometry">
            <mxRectangle x="310" y="160" width="130" height="23" as="alternateBounds" />
          </mxGeometry>
        </mxCell>
        <mxCell id="R05Kf0UMh7dOOsXil6bq-12" value="One way selected" style="text;html=1;strokeColor=none;fillColor=none;align=center;verticalAlign=middle;whiteSpace=wrap;rounded=0;labelBackgroundColor=none;labelBorderColor=none;" parent="hMW5H2m9D7a2tleL5P6j-43" vertex="1">
          <mxGeometry x="22" y="65" width="60" height="30" as="geometry" />
        </mxCell>
        <mxCell id="hMW5H2m9D7a2tleL5P6j-44" value="" style="line;strokeWidth=1;html=1;" parent="hMW5H2m9D7a2tleL5P6j-1" vertex="1">
          <mxGeometry x="142" y="419.5" width="40" height="10" as="geometry" />
        </mxCell>
        <mxCell id="hMW5H2m9D7a2tleL5P6j-45" style="edgeStyle=orthogonalEdgeStyle;rounded=0;html=1;labelBackgroundColor=none;startArrow=none;startFill=0;startSize=5;endArrow=classicThin;endFill=1;endSize=5;jettySize=auto;orthogonalLoop=1;strokeWidth=1;fontFamily=Verdana;fontSize=8" parent="hMW5H2m9D7a2tleL5P6j-1" edge="1">
          <mxGeometry relative="1" as="geometry">
            <mxPoint x="212" y="424.29999999999995" as="sourcePoint" />
            <mxPoint x="262" y="424.5" as="targetPoint" />
            <Array as="points">
              <mxPoint x="252" y="424.5" />
              <mxPoint x="252" y="424.5" />
            </Array>
          </mxGeometry>
        </mxCell>
        <mxCell id="hMW5H2m9D7a2tleL5P6j-46" value="" style="ellipse;whiteSpace=wrap;html=1;rounded=0;shadow=0;labelBackgroundColor=none;strokeWidth=1;fontFamily=Verdana;fontSize=8;align=center;" parent="hMW5H2m9D7a2tleL5P6j-1" vertex="1">
          <mxGeometry x="403" y="410.5" width="30" height="30" as="geometry" />
        </mxCell>
        <mxCell id="hMW5H2m9D7a2tleL5P6j-47" value="Book Flight" style="swimlane;fillColor=#FFE6CC;" parent="hMW5H2m9D7a2tleL5P6j-1" vertex="1">
          <mxGeometry x="263" y="362" width="100" height="120" as="geometry">
            <mxRectangle x="310" y="160" width="130" height="23" as="alternateBounds" />
          </mxGeometry>
        </mxCell>
        <mxCell id="R05Kf0UMh7dOOsXil6bq-13" value="Date picker shown" style="text;html=1;strokeColor=none;fillColor=none;align=center;verticalAlign=middle;whiteSpace=wrap;rounded=0;labelBackgroundColor=none;labelBorderColor=none;" parent="hMW5H2m9D7a2tleL5P6j-47" vertex="1">
          <mxGeometry x="23" y="65" width="60" height="30" as="geometry" />
        </mxCell>
        <mxCell id="hMW5H2m9D7a2tleL5P6j-48" value="" style="line;strokeWidth=1;html=1;" parent="hMW5H2m9D7a2tleL5P6j-1" vertex="1">
          <mxGeometry x="363" y="419.5" width="40" height="10" as="geometry" />
        </mxCell>
        <mxCell id="hMW5H2m9D7a2tleL5P6j-49" style="edgeStyle=orthogonalEdgeStyle;rounded=0;html=1;labelBackgroundColor=none;startArrow=none;startFill=0;startSize=5;endArrow=classicThin;endFill=1;endSize=5;jettySize=auto;orthogonalLoop=1;strokeWidth=1;fontFamily=Verdana;fontSize=8" parent="hMW5H2m9D7a2tleL5P6j-1" edge="1">
          <mxGeometry relative="1" as="geometry">
            <mxPoint x="433" y="424.29999999999995" as="sourcePoint" />
            <mxPoint x="483" y="424.5" as="targetPoint" />
            <Array as="points">
              <mxPoint x="473" y="424.5" />
              <mxPoint x="473" y="424.5" />
            </Array>
          </mxGeometry>
        </mxCell>
        <mxCell id="hMW5H2m9D7a2tleL5P6j-50" value="" style="ellipse;whiteSpace=wrap;html=1;rounded=0;shadow=0;labelBackgroundColor=none;strokeWidth=1;fontFamily=Verdana;fontSize=8;align=center;" parent="hMW5H2m9D7a2tleL5P6j-1" vertex="1">
          <mxGeometry x="621" y="409.5" width="30" height="30" as="geometry" />
        </mxCell>
        <mxCell id="hMW5H2m9D7a2tleL5P6j-51" value="Book Flight" style="swimlane;fillColor=#FFE6CC;" parent="hMW5H2m9D7a2tleL5P6j-1" vertex="1">
          <mxGeometry x="482" y="362" width="100" height="120" as="geometry">
            <mxRectangle x="310" y="160" width="130" height="23" as="alternateBounds" />
          </mxGeometry>
        </mxCell>
        <mxCell id="R05Kf0UMh7dOOsXil6bq-14" value="Review page&lt;br&gt;&lt;br&gt;cta &#39;find a flight&#39;" style="text;html=1;strokeColor=none;fillColor=none;align=center;verticalAlign=middle;whiteSpace=wrap;rounded=0;labelBackgroundColor=none;labelBorderColor=none;" parent="hMW5H2m9D7a2tleL5P6j-51" vertex="1">
          <mxGeometry x="14" y="67" width="80" height="30" as="geometry" />
        </mxCell>
        <mxCell id="hMW5H2m9D7a2tleL5P6j-52" value="" style="line;strokeWidth=1;html=1;" parent="hMW5H2m9D7a2tleL5P6j-1" vertex="1">
          <mxGeometry x="581" y="418.5" width="40" height="10" as="geometry" />
        </mxCell>
        <mxCell id="hMW5H2m9D7a2tleL5P6j-53" style="edgeStyle=orthogonalEdgeStyle;rounded=0;html=1;labelBackgroundColor=none;startArrow=none;startFill=0;startSize=5;endArrow=classicThin;endFill=1;endSize=5;jettySize=auto;orthogonalLoop=1;strokeWidth=1;fontFamily=Verdana;fontSize=8" parent="hMW5H2m9D7a2tleL5P6j-1" edge="1">
          <mxGeometry relative="1" as="geometry">
            <mxPoint x="651" y="423.29999999999995" as="sourcePoint" />
            <mxPoint x="701" y="423.5" as="targetPoint" />
            <Array as="points">
              <mxPoint x="691" y="423.5" />
              <mxPoint x="691" y="423.5" />
            </Array>
          </mxGeometry>
        </mxCell>
        <mxCell id="hMW5H2m9D7a2tleL5P6j-54" value="" style="ellipse;whiteSpace=wrap;html=1;rounded=0;shadow=0;labelBackgroundColor=none;strokeWidth=1;fontFamily=Verdana;fontSize=8;align=center;" parent="hMW5H2m9D7a2tleL5P6j-1" vertex="1">
          <mxGeometry x="841" y="408" width="30" height="30" as="geometry" />
        </mxCell>
        <mxCell id="hMW5H2m9D7a2tleL5P6j-55" value="Flight Selection" style="swimlane;fillColor=#E6FFCC;" parent="hMW5H2m9D7a2tleL5P6j-1" vertex="1">
          <mxGeometry x="701" y="362" width="100" height="120" as="geometry">
            <mxRectangle x="310" y="160" width="130" height="23" as="alternateBounds" />
          </mxGeometry>
        </mxCell>
        <mxCell id="hMW5H2m9D7a2tleL5P6j-56" value="" style="line;strokeWidth=1;html=1;" parent="hMW5H2m9D7a2tleL5P6j-1" vertex="1">
          <mxGeometry x="801" y="417" width="40" height="10" as="geometry" />
        </mxCell>
        <mxCell id="hMW5H2m9D7a2tleL5P6j-57" style="edgeStyle=orthogonalEdgeStyle;rounded=0;html=1;labelBackgroundColor=none;startArrow=none;startFill=0;startSize=5;endArrow=classicThin;endFill=1;endSize=5;jettySize=auto;orthogonalLoop=1;strokeWidth=1;fontFamily=Verdana;fontSize=8" parent="hMW5H2m9D7a2tleL5P6j-1" edge="1">
          <mxGeometry relative="1" as="geometry">
            <mxPoint x="871" y="421.79999999999995" as="sourcePoint" />
            <mxPoint x="921" y="422" as="targetPoint" />
            <Array as="points">
              <mxPoint x="911" y="422" />
              <mxPoint x="911" y="422" />
            </Array>
          </mxGeometry>
        </mxCell>
        <mxCell id="hMW5H2m9D7a2tleL5P6j-58" value="" style="ellipse;whiteSpace=wrap;html=1;rounded=0;shadow=0;labelBackgroundColor=none;strokeWidth=1;fontFamily=Verdana;fontSize=8;align=center;" parent="hMW5H2m9D7a2tleL5P6j-1" vertex="1">
          <mxGeometry x="1061" y="405.5" width="30" height="30" as="geometry" />
        </mxCell>
        <mxCell id="hMW5H2m9D7a2tleL5P6j-59" value="Review Page" style="swimlane;fillColor=#CCFFCC;" parent="hMW5H2m9D7a2tleL5P6j-1" vertex="1">
          <mxGeometry x="921" y="358.5" width="100" height="120" as="geometry">
            <mxRectangle x="310" y="160" width="130" height="23" as="alternateBounds" />
          </mxGeometry>
        </mxCell>
        <mxCell id="R05Kf0UMh7dOOsXil6bq-16" value="economy basic vs economy plus" style="text;html=1;strokeColor=none;fillColor=none;align=center;verticalAlign=middle;whiteSpace=wrap;rounded=0;labelBackgroundColor=none;labelBorderColor=none;" parent="hMW5H2m9D7a2tleL5P6j-59" vertex="1">
          <mxGeometry x="23" y="66" width="60" height="30" as="geometry" />
        </mxCell>
        <mxCell id="hMW5H2m9D7a2tleL5P6j-60" value="" style="line;strokeWidth=1;html=1;" parent="hMW5H2m9D7a2tleL5P6j-1" vertex="1">
          <mxGeometry x="1021" y="414.5" width="40" height="10" as="geometry" />
        </mxCell>
        <mxCell id="hMW5H2m9D7a2tleL5P6j-61" style="edgeStyle=orthogonalEdgeStyle;rounded=0;html=1;labelBackgroundColor=none;startArrow=none;startFill=0;startSize=5;endArrow=classicThin;endFill=1;endSize=5;jettySize=auto;orthogonalLoop=1;strokeWidth=1;fontFamily=Verdana;fontSize=8" parent="hMW5H2m9D7a2tleL5P6j-1" edge="1">
          <mxGeometry relative="1" as="geometry">
            <mxPoint x="1091" y="419.29999999999995" as="sourcePoint" />
            <mxPoint x="1141" y="419.5" as="targetPoint" />
            <Array as="points">
              <mxPoint x="1131" y="419.5" />
              <mxPoint x="1131" y="419.5" />
            </Array>
          </mxGeometry>
        </mxCell>
        <mxCell id="hMW5H2m9D7a2tleL5P6j-62" value="" style="ellipse;whiteSpace=wrap;html=1;rounded=0;shadow=0;labelBackgroundColor=none;strokeWidth=1;fontFamily=Verdana;fontSize=8;align=center;" parent="hMW5H2m9D7a2tleL5P6j-1" vertex="1">
          <mxGeometry x="181" y="567" width="30" height="30" as="geometry" />
        </mxCell>
        <mxCell id="hMW5H2m9D7a2tleL5P6j-63" value="Flight Summary" style="swimlane;fillColor=#CCFFE6;" parent="hMW5H2m9D7a2tleL5P6j-1" vertex="1">
          <mxGeometry x="41" y="520" width="100" height="120" as="geometry">
            <mxRectangle x="310" y="160" width="130" height="23" as="alternateBounds" />
          </mxGeometry>
        </mxCell>
        <mxCell id="R05Kf0UMh7dOOsXil6bq-17" value="Review page" style="text;html=1;strokeColor=none;fillColor=none;align=center;verticalAlign=middle;whiteSpace=wrap;rounded=0;labelBackgroundColor=none;labelBorderColor=none;" parent="hMW5H2m9D7a2tleL5P6j-63" vertex="1">
          <mxGeometry x="19" y="63" width="60" height="30" as="geometry" />
        </mxCell>
        <mxCell id="hMW5H2m9D7a2tleL5P6j-64" value="" style="line;strokeWidth=1;html=1;" parent="hMW5H2m9D7a2tleL5P6j-1" vertex="1">
          <mxGeometry x="141" y="576" width="40" height="10" as="geometry" />
        </mxCell>
        <mxCell id="hMW5H2m9D7a2tleL5P6j-65" style="edgeStyle=orthogonalEdgeStyle;rounded=0;html=1;labelBackgroundColor=none;startArrow=none;startFill=0;startSize=5;endArrow=classicThin;endFill=1;endSize=5;jettySize=auto;orthogonalLoop=1;strokeWidth=1;fontFamily=Verdana;fontSize=8" parent="hMW5H2m9D7a2tleL5P6j-1" edge="1">
          <mxGeometry relative="1" as="geometry">
            <mxPoint x="211" y="580.8" as="sourcePoint" />
            <mxPoint x="261" y="581" as="targetPoint" />
            <Array as="points">
              <mxPoint x="251" y="581" />
              <mxPoint x="251" y="581" />
            </Array>
          </mxGeometry>
        </mxCell>
        <mxCell id="38FS5L4Y4gcRMMmfQJto-1" value="Tap &#39;Book a flight&#39;&amp;nbsp;" style="text;html=1;strokeColor=none;fillColor=none;align=center;verticalAlign=middle;whiteSpace=wrap;rounded=0;labelBackgroundColor=none;labelBorderColor=none;" parent="hMW5H2m9D7a2tleL5P6j-1" vertex="1">
          <mxGeometry x="166" y="120" width="60" height="30" as="geometry" />
        </mxCell>
        <mxCell id="38FS5L4Y4gcRMMmfQJto-2" value="Tap &#39;Select Departure&#39;" style="text;html=1;strokeColor=none;fillColor=none;align=center;verticalAlign=middle;whiteSpace=wrap;rounded=0;labelBackgroundColor=none;labelBorderColor=none;" parent="hMW5H2m9D7a2tleL5P6j-1" vertex="1">
          <mxGeometry x="383.5" y="120" width="65" height="30" as="geometry" />
        </mxCell>
        <mxCell id="38FS5L4Y4gcRMMmfQJto-3" value="Text &#39;tap nearby&#39;" style="text;html=1;strokeColor=none;fillColor=none;align=center;verticalAlign=middle;whiteSpace=wrap;rounded=0;labelBackgroundColor=none;labelBorderColor=none;" parent="hMW5H2m9D7a2tleL5P6j-1" vertex="1">
          <mxGeometry x="608" y="121" width="60" height="30" as="geometry" />
        </mxCell>
        <mxCell id="38FS5L4Y4gcRMMmfQJto-4" value="Tap &#39;Allow Once&#39;" style="text;html=1;strokeColor=none;fillColor=none;align=center;verticalAlign=middle;whiteSpace=wrap;rounded=0;labelBackgroundColor=none;labelBorderColor=none;" parent="hMW5H2m9D7a2tleL5P6j-1" vertex="1">
          <mxGeometry x="826" y="125" width="60" height="30" as="geometry" />
        </mxCell>
        <mxCell id="38FS5L4Y4gcRMMmfQJto-5" value="Tap &#39;Glasgow&#39;" style="text;html=1;strokeColor=none;fillColor=none;align=center;verticalAlign=middle;whiteSpace=wrap;rounded=0;labelBackgroundColor=none;labelBorderColor=none;" parent="hMW5H2m9D7a2tleL5P6j-1" vertex="1">
          <mxGeometry x="1047" y="125.5" width="60" height="30" as="geometry" />
        </mxCell>
        <mxCell id="38FS5L4Y4gcRMMmfQJto-6" value="Tap &#39;Select Arrival&#39;" style="text;html=1;strokeColor=none;fillColor=none;align=center;verticalAlign=middle;whiteSpace=wrap;rounded=0;labelBackgroundColor=none;labelBorderColor=none;" parent="hMW5H2m9D7a2tleL5P6j-1" vertex="1">
          <mxGeometry x="164" y="284" width="64" height="30" as="geometry" />
        </mxCell>
        <mxCell id="38FS5L4Y4gcRMMmfQJto-7" value="Tap &#39;Search for an airport&#39;" style="text;html=1;strokeColor=none;fillColor=none;align=center;verticalAlign=middle;whiteSpace=wrap;rounded=0;labelBackgroundColor=none;labelBorderColor=none;" parent="hMW5H2m9D7a2tleL5P6j-1" vertex="1">
          <mxGeometry x="376" y="287" width="80" height="30" as="geometry" />
        </mxCell>
        <mxCell id="38FS5L4Y4gcRMMmfQJto-8" value="Type &#39;Lon&#39;" style="text;html=1;strokeColor=none;fillColor=none;align=center;verticalAlign=middle;whiteSpace=wrap;rounded=0;labelBackgroundColor=none;labelBorderColor=none;" parent="hMW5H2m9D7a2tleL5P6j-1" vertex="1">
          <mxGeometry x="609" y="283" width="60" height="30" as="geometry" />
        </mxCell>
        <mxCell id="38FS5L4Y4gcRMMmfQJto-9" value="Tap &#39; London, LHR&#39;" style="text;html=1;strokeColor=none;fillColor=none;align=center;verticalAlign=middle;whiteSpace=wrap;rounded=0;labelBackgroundColor=none;labelBorderColor=none;" parent="hMW5H2m9D7a2tleL5P6j-1" vertex="1">
          <mxGeometry x="817.5" y="286" width="75" height="30" as="geometry" />
        </mxCell>
        <mxCell id="38FS5L4Y4gcRMMmfQJto-10" value="Tap &#39;Return&#39;" style="text;html=1;strokeColor=none;fillColor=none;align=center;verticalAlign=middle;whiteSpace=wrap;rounded=0;labelBackgroundColor=none;labelBorderColor=none;" parent="hMW5H2m9D7a2tleL5P6j-1" vertex="1">
          <mxGeometry x="1045" y="287.5" width="60" height="30" as="geometry" />
        </mxCell>
        <mxCell id="38FS5L4Y4gcRMMmfQJto-11" value="Tap &#39;05 Oct 2021&#39;" style="text;html=1;strokeColor=none;fillColor=none;align=center;verticalAlign=middle;whiteSpace=wrap;rounded=0;labelBackgroundColor=none;labelBorderColor=none;" parent="hMW5H2m9D7a2tleL5P6j-1" vertex="1">
          <mxGeometry x="168" y="448.5" width="60" height="30" as="geometry" />
        </mxCell>
        <mxCell id="38FS5L4Y4gcRMMmfQJto-12" value="Tap &#39;20&#39;" style="text;html=1;strokeColor=none;fillColor=none;align=center;verticalAlign=middle;whiteSpace=wrap;rounded=0;labelBackgroundColor=none;labelBorderColor=none;" parent="hMW5H2m9D7a2tleL5P6j-1" vertex="1">
          <mxGeometry x="389" y="441.5" width="60" height="30" as="geometry" />
        </mxCell>
        <mxCell id="38FS5L4Y4gcRMMmfQJto-13" value="Tap &#39;find a flight&#39;" style="text;html=1;strokeColor=none;fillColor=none;align=center;verticalAlign=middle;whiteSpace=wrap;rounded=0;labelBackgroundColor=none;labelBorderColor=none;" parent="hMW5H2m9D7a2tleL5P6j-1" vertex="1">
          <mxGeometry x="607" y="444.5" width="60" height="30" as="geometry" />
        </mxCell>
        <mxCell id="38FS5L4Y4gcRMMmfQJto-14" value="Scroll and Tap to select" style="text;html=1;strokeColor=none;fillColor=none;align=center;verticalAlign=middle;whiteSpace=wrap;rounded=0;labelBackgroundColor=none;labelBorderColor=none;" parent="hMW5H2m9D7a2tleL5P6j-1" vertex="1">
          <mxGeometry x="821" y="446" width="70" height="30" as="geometry" />
        </mxCell>
        <mxCell id="38FS5L4Y4gcRMMmfQJto-15" value="Tap &#39;&#39;choose&#39;" style="text;html=1;strokeColor=none;fillColor=none;align=center;verticalAlign=middle;whiteSpace=wrap;rounded=0;labelBackgroundColor=none;labelBorderColor=none;" parent="hMW5H2m9D7a2tleL5P6j-1" vertex="1">
          <mxGeometry x="1047" y="443.5" width="60" height="30" as="geometry" />
        </mxCell>
        <mxCell id="38FS5L4Y4gcRMMmfQJto-16" value="Tap &#39;continue&#39;" style="text;html=1;strokeColor=none;fillColor=none;align=center;verticalAlign=middle;whiteSpace=wrap;rounded=0;labelBackgroundColor=none;labelBorderColor=none;" parent="hMW5H2m9D7a2tleL5P6j-1" vertex="1">
          <mxGeometry x="167" y="604" width="60" height="30" as="geometry" />
        </mxCell>
        <mxCell id="R05Kf0UMh7dOOsXil6bq-15" value="Review flight selection" style="text;html=1;strokeColor=none;fillColor=none;align=center;verticalAlign=middle;whiteSpace=wrap;rounded=0;labelBackgroundColor=none;labelBorderColor=none;" parent="hMW5H2m9D7a2tleL5P6j-1" vertex="1">
          <mxGeometry x="723" y="427" width="60" height="30" as="geometry" />
        </mxCell>
        <mxCell id="CRWkGtKrpomyZI7Dc02Q-11" value="" style="ellipse;whiteSpace=wrap;html=1;rounded=0;shadow=0;labelBackgroundColor=none;strokeWidth=1;fontFamily=Verdana;fontSize=8;align=center;" vertex="1" parent="hMW5H2m9D7a2tleL5P6j-1">
          <mxGeometry x="400" y="248.5" width="30" height="30" as="geometry" />
        </mxCell>
        <mxCell id="CRWkGtKrpomyZI7Dc02Q-12" value="" style="line;strokeWidth=1;html=1;" vertex="1" parent="hMW5H2m9D7a2tleL5P6j-1">
          <mxGeometry x="360" y="257.5" width="40" height="10" as="geometry" />
        </mxCell>
        <mxCell id="CRWkGtKrpomyZI7Dc02Q-13" style="edgeStyle=orthogonalEdgeStyle;rounded=0;html=1;labelBackgroundColor=none;startArrow=none;startFill=0;startSize=5;endArrow=classicThin;endFill=1;endSize=5;jettySize=auto;orthogonalLoop=1;strokeWidth=1;fontFamily=Verdana;fontSize=8" edge="1" parent="hMW5H2m9D7a2tleL5P6j-1">
          <mxGeometry relative="1" as="geometry">
            <mxPoint x="430" y="262.29999999999995" as="sourcePoint" />
            <mxPoint x="480" y="262.5" as="targetPoint" />
            <Array as="points">
              <mxPoint x="470" y="262.5" />
              <mxPoint x="470" y="262.5" />
            </Array>
          </mxGeometry>
        </mxCell>
        <mxCell id="4XNmG7tdrQrYvvtlHRUh-0" value="" style="ellipse;whiteSpace=wrap;html=1;rounded=0;shadow=0;labelBackgroundColor=none;strokeWidth=1;fontFamily=Verdana;fontSize=8;align=center;" vertex="1" parent="hMW5H2m9D7a2tleL5P6j-1">
          <mxGeometry x="403" y="571.5" width="30" height="30" as="geometry" />
        </mxCell>
        <mxCell id="4XNmG7tdrQrYvvtlHRUh-1" value="Passenger Details" style="swimlane;fillColor=#CCE5FF;fontSize=11;" vertex="1" parent="hMW5H2m9D7a2tleL5P6j-1">
          <mxGeometry x="263" y="521.5" width="100" height="120" as="geometry">
            <mxRectangle x="310" y="160" width="130" height="23" as="alternateBounds" />
          </mxGeometry>
        </mxCell>
        <mxCell id="4XNmG7tdrQrYvvtlHRUh-2" value="add passenger prompt" style="text;html=1;strokeColor=none;fillColor=none;align=center;verticalAlign=middle;whiteSpace=wrap;rounded=0;labelBackgroundColor=none;labelBorderColor=none;" vertex="1" parent="4XNmG7tdrQrYvvtlHRUh-1">
          <mxGeometry x="16" y="65" width="60" height="30" as="geometry" />
        </mxCell>
        <mxCell id="4XNmG7tdrQrYvvtlHRUh-3" value="" style="line;strokeWidth=1;html=1;" vertex="1" parent="hMW5H2m9D7a2tleL5P6j-1">
          <mxGeometry x="363" y="580.5" width="40" height="10" as="geometry" />
        </mxCell>
        <mxCell id="4XNmG7tdrQrYvvtlHRUh-4" style="edgeStyle=orthogonalEdgeStyle;rounded=0;html=1;labelBackgroundColor=none;startArrow=none;startFill=0;startSize=5;endArrow=classicThin;endFill=1;endSize=5;jettySize=auto;orthogonalLoop=1;strokeWidth=1;fontFamily=Verdana;fontSize=8" edge="1" parent="hMW5H2m9D7a2tleL5P6j-1">
          <mxGeometry relative="1" as="geometry">
            <mxPoint x="433" y="585.3" as="sourcePoint" />
            <mxPoint x="483" y="585.5" as="targetPoint" />
            <Array as="points">
              <mxPoint x="473" y="585.5" />
              <mxPoint x="473" y="585.5" />
            </Array>
          </mxGeometry>
        </mxCell>
        <mxCell id="4XNmG7tdrQrYvvtlHRUh-5" value="" style="ellipse;whiteSpace=wrap;html=1;rounded=0;shadow=0;labelBackgroundColor=none;strokeWidth=1;fontFamily=Verdana;fontSize=8;align=center;" vertex="1" parent="hMW5H2m9D7a2tleL5P6j-1">
          <mxGeometry x="623" y="572.5" width="30" height="30" as="geometry" />
        </mxCell>
        <mxCell id="4XNmG7tdrQrYvvtlHRUh-6" value="Passenger Details" style="swimlane;fillColor=#CCE5FF;fontSize=11;" vertex="1" parent="hMW5H2m9D7a2tleL5P6j-1">
          <mxGeometry x="484" y="522.5" width="100" height="120" as="geometry">
            <mxRectangle x="310" y="160" width="130" height="23" as="alternateBounds" />
          </mxGeometry>
        </mxCell>
        <mxCell id="4XNmG7tdrQrYvvtlHRUh-7" value="" style="line;strokeWidth=1;html=1;" vertex="1" parent="hMW5H2m9D7a2tleL5P6j-1">
          <mxGeometry x="583" y="581.5" width="40" height="10" as="geometry" />
        </mxCell>
        <mxCell id="4XNmG7tdrQrYvvtlHRUh-8" style="edgeStyle=orthogonalEdgeStyle;rounded=0;html=1;labelBackgroundColor=none;startArrow=none;startFill=0;startSize=5;endArrow=classicThin;endFill=1;endSize=5;jettySize=auto;orthogonalLoop=1;strokeWidth=1;fontFamily=Verdana;fontSize=8" edge="1" parent="hMW5H2m9D7a2tleL5P6j-1">
          <mxGeometry relative="1" as="geometry">
            <mxPoint x="653" y="586.3" as="sourcePoint" />
            <mxPoint x="703" y="586.5" as="targetPoint" />
            <Array as="points">
              <mxPoint x="693" y="586.5" />
              <mxPoint x="693" y="586.5" />
            </Array>
          </mxGeometry>
        </mxCell>
        <mxCell id="4XNmG7tdrQrYvvtlHRUh-9" value="" style="ellipse;whiteSpace=wrap;html=1;rounded=0;shadow=0;labelBackgroundColor=none;strokeWidth=1;fontFamily=Verdana;fontSize=8;align=center;" vertex="1" parent="hMW5H2m9D7a2tleL5P6j-1">
          <mxGeometry x="843" y="573.5" width="30" height="30" as="geometry" />
        </mxCell>
        <mxCell id="4XNmG7tdrQrYvvtlHRUh-10" value="Passenger Details" style="swimlane;fillColor=#CCE5FF;fontSize=11;" vertex="1" parent="hMW5H2m9D7a2tleL5P6j-1">
          <mxGeometry x="703" y="522.5" width="100" height="120" as="geometry">
            <mxRectangle x="310" y="160" width="130" height="23" as="alternateBounds" />
          </mxGeometry>
        </mxCell>
        <mxCell id="4XNmG7tdrQrYvvtlHRUh-11" value="Select option" style="text;html=1;strokeColor=none;fillColor=none;align=center;verticalAlign=middle;whiteSpace=wrap;rounded=0;labelBackgroundColor=none;labelBorderColor=none;" vertex="1" parent="4XNmG7tdrQrYvvtlHRUh-10">
          <mxGeometry x="19" y="62" width="60" height="30" as="geometry" />
        </mxCell>
        <mxCell id="4XNmG7tdrQrYvvtlHRUh-12" value="" style="line;strokeWidth=1;html=1;" vertex="1" parent="hMW5H2m9D7a2tleL5P6j-1">
          <mxGeometry x="803" y="582.5" width="40" height="10" as="geometry" />
        </mxCell>
        <mxCell id="4XNmG7tdrQrYvvtlHRUh-13" style="edgeStyle=orthogonalEdgeStyle;rounded=0;html=1;labelBackgroundColor=none;startArrow=none;startFill=0;startSize=5;endArrow=classicThin;endFill=1;endSize=5;jettySize=auto;orthogonalLoop=1;strokeWidth=1;fontFamily=Verdana;fontSize=8" edge="1" parent="hMW5H2m9D7a2tleL5P6j-1">
          <mxGeometry relative="1" as="geometry">
            <mxPoint x="873" y="587.3" as="sourcePoint" />
            <mxPoint x="923" y="587.5" as="targetPoint" />
            <Array as="points">
              <mxPoint x="913" y="587.5" />
              <mxPoint x="913" y="587.5" />
            </Array>
          </mxGeometry>
        </mxCell>
        <mxCell id="4XNmG7tdrQrYvvtlHRUh-14" value="" style="ellipse;whiteSpace=wrap;html=1;rounded=0;shadow=0;labelBackgroundColor=none;strokeWidth=1;fontFamily=Verdana;fontSize=8;align=center;" vertex="1" parent="hMW5H2m9D7a2tleL5P6j-1">
          <mxGeometry x="1064" y="572.5" width="30" height="30" as="geometry" />
        </mxCell>
        <mxCell id="4XNmG7tdrQrYvvtlHRUh-15" value="Passenger Details" style="swimlane;fillColor=#CCE5FF;fontSize=11;" vertex="1" parent="hMW5H2m9D7a2tleL5P6j-1">
          <mxGeometry x="924" y="522.5" width="100" height="120" as="geometry">
            <mxRectangle x="310" y="160" width="130" height="23" as="alternateBounds" />
          </mxGeometry>
        </mxCell>
        <mxCell id="4XNmG7tdrQrYvvtlHRUh-16" value="Enter detail prompt" style="text;html=1;strokeColor=none;fillColor=none;align=center;verticalAlign=middle;whiteSpace=wrap;rounded=0;labelBackgroundColor=none;labelBorderColor=none;" vertex="1" parent="4XNmG7tdrQrYvvtlHRUh-15">
          <mxGeometry x="19" y="65" width="60" height="30" as="geometry" />
        </mxCell>
        <mxCell id="4XNmG7tdrQrYvvtlHRUh-17" value="" style="line;strokeWidth=1;html=1;" vertex="1" parent="hMW5H2m9D7a2tleL5P6j-1">
          <mxGeometry x="1024" y="581.5" width="40" height="10" as="geometry" />
        </mxCell>
        <mxCell id="4XNmG7tdrQrYvvtlHRUh-18" style="edgeStyle=orthogonalEdgeStyle;rounded=0;html=1;labelBackgroundColor=none;startArrow=none;startFill=0;startSize=5;endArrow=classicThin;endFill=1;endSize=5;jettySize=auto;orthogonalLoop=1;strokeWidth=1;fontFamily=Verdana;fontSize=8" edge="1" parent="hMW5H2m9D7a2tleL5P6j-1">
          <mxGeometry relative="1" as="geometry">
            <mxPoint x="1094" y="586.3" as="sourcePoint" />
            <mxPoint x="1144" y="586.5" as="targetPoint" />
            <Array as="points">
              <mxPoint x="1134" y="586.5" />
              <mxPoint x="1134" y="586.5" />
            </Array>
          </mxGeometry>
        </mxCell>
        <mxCell id="4XNmG7tdrQrYvvtlHRUh-19" value="Tap &#39;add new adult passenger&#39;" style="text;html=1;strokeColor=none;fillColor=none;align=center;verticalAlign=middle;whiteSpace=wrap;rounded=0;labelBackgroundColor=none;labelBorderColor=none;" vertex="1" parent="hMW5H2m9D7a2tleL5P6j-1">
          <mxGeometry x="371" y="603.5" width="94" height="30" as="geometry" />
        </mxCell>
        <mxCell id="4XNmG7tdrQrYvvtlHRUh-20" value="Tap &#39;Title&#39;" style="text;html=1;strokeColor=none;fillColor=none;align=center;verticalAlign=middle;whiteSpace=wrap;rounded=0;labelBackgroundColor=none;labelBorderColor=none;" vertex="1" parent="hMW5H2m9D7a2tleL5P6j-1">
          <mxGeometry x="609" y="602.5" width="60" height="30" as="geometry" />
        </mxCell>
        <mxCell id="4XNmG7tdrQrYvvtlHRUh-21" value="Scroll to select &#39;Mr&#39; then Tap &#39;done&#39;" style="text;html=1;strokeColor=none;fillColor=none;align=center;verticalAlign=middle;whiteSpace=wrap;rounded=0;labelBackgroundColor=none;labelBorderColor=none;" vertex="1" parent="hMW5H2m9D7a2tleL5P6j-1">
          <mxGeometry x="817" y="605.5" width="85" height="30" as="geometry" />
        </mxCell>
        <mxCell id="4XNmG7tdrQrYvvtlHRUh-22" value="Tap &#39;First name&#39;" style="text;html=1;strokeColor=none;fillColor=none;align=center;verticalAlign=middle;whiteSpace=wrap;rounded=0;labelBackgroundColor=none;labelBorderColor=none;" vertex="1" parent="hMW5H2m9D7a2tleL5P6j-1">
          <mxGeometry x="1050" y="604.5" width="60" height="30" as="geometry" />
        </mxCell>
        <mxCell id="4XNmG7tdrQrYvvtlHRUh-23" value="Enter detail prompt" style="text;html=1;strokeColor=none;fillColor=none;align=center;verticalAlign=middle;whiteSpace=wrap;rounded=0;labelBackgroundColor=none;labelBorderColor=none;" vertex="1" parent="hMW5H2m9D7a2tleL5P6j-1">
          <mxGeometry x="501" y="589.5" width="60" height="30" as="geometry" />
        </mxCell>
        <mxCell id="3QKrVyNvJ9sGGc38YUiV-0" value="" style="ellipse;whiteSpace=wrap;html=1;rounded=0;shadow=0;labelBackgroundColor=none;strokeWidth=1;fontFamily=Verdana;fontSize=8;align=center;" vertex="1" parent="hMW5H2m9D7a2tleL5P6j-1">
          <mxGeometry x="182" y="728.5" width="30" height="30" as="geometry" />
        </mxCell>
        <mxCell id="3QKrVyNvJ9sGGc38YUiV-1" value="Passenger Details" style="swimlane;fillColor=#CCE5FF;fontSize=11;" vertex="1" parent="hMW5H2m9D7a2tleL5P6j-1">
          <mxGeometry x="42" y="680" width="100" height="120" as="geometry">
            <mxRectangle x="310" y="160" width="130" height="23" as="alternateBounds" />
          </mxGeometry>
        </mxCell>
        <mxCell id="3QKrVyNvJ9sGGc38YUiV-2" value="Enter first name prompt" style="text;html=1;strokeColor=none;fillColor=none;align=center;verticalAlign=middle;whiteSpace=wrap;rounded=0;labelBackgroundColor=none;labelBorderColor=none;" vertex="1" parent="3QKrVyNvJ9sGGc38YUiV-1">
          <mxGeometry x="21" y="65" width="60" height="30" as="geometry" />
        </mxCell>
        <mxCell id="3QKrVyNvJ9sGGc38YUiV-3" value="" style="line;strokeWidth=1;html=1;" vertex="1" parent="hMW5H2m9D7a2tleL5P6j-1">
          <mxGeometry x="142" y="737.5" width="40" height="10" as="geometry" />
        </mxCell>
        <mxCell id="3QKrVyNvJ9sGGc38YUiV-4" style="edgeStyle=orthogonalEdgeStyle;rounded=0;html=1;labelBackgroundColor=none;startArrow=none;startFill=0;startSize=5;endArrow=classicThin;endFill=1;endSize=5;jettySize=auto;orthogonalLoop=1;strokeWidth=1;fontFamily=Verdana;fontSize=8" edge="1" parent="hMW5H2m9D7a2tleL5P6j-1">
          <mxGeometry relative="1" as="geometry">
            <mxPoint x="212" y="742.3" as="sourcePoint" />
            <mxPoint x="262" y="742.5" as="targetPoint" />
            <Array as="points">
              <mxPoint x="252" y="742.5" />
              <mxPoint x="252" y="742.5" />
            </Array>
          </mxGeometry>
        </mxCell>
        <mxCell id="3QKrVyNvJ9sGGc38YUiV-5" value="Type &#39;David&#39;" style="text;html=1;strokeColor=none;fillColor=none;align=center;verticalAlign=middle;whiteSpace=wrap;rounded=0;labelBackgroundColor=none;labelBorderColor=none;" vertex="1" parent="hMW5H2m9D7a2tleL5P6j-1">
          <mxGeometry x="166" y="765.5" width="60" height="30" as="geometry" />
        </mxCell>
        <mxCell id="gxGbnO-F6uIn5kAuKY4p-19" value="" style="ellipse;whiteSpace=wrap;html=1;rounded=0;shadow=0;labelBackgroundColor=none;strokeWidth=1;fontFamily=Verdana;fontSize=8;align=center;" vertex="1" parent="hMW5H2m9D7a2tleL5P6j-1">
          <mxGeometry x="403" y="732" width="30" height="30" as="geometry" />
        </mxCell>
        <mxCell id="gxGbnO-F6uIn5kAuKY4p-20" value="Passenger Details" style="swimlane;fillColor=#CCE5FF;fontSize=11;" vertex="1" parent="hMW5H2m9D7a2tleL5P6j-1">
          <mxGeometry x="263" y="681.5" width="100" height="120" as="geometry">
            <mxRectangle x="310" y="160" width="130" height="23" as="alternateBounds" />
          </mxGeometry>
        </mxCell>
        <mxCell id="gxGbnO-F6uIn5kAuKY4p-21" value="Name entered" style="text;html=1;strokeColor=none;fillColor=none;align=center;verticalAlign=middle;whiteSpace=wrap;rounded=0;labelBackgroundColor=none;labelBorderColor=none;" vertex="1" parent="gxGbnO-F6uIn5kAuKY4p-20">
          <mxGeometry x="21" y="64" width="60" height="30" as="geometry" />
        </mxCell>
        <mxCell id="gxGbnO-F6uIn5kAuKY4p-22" value="" style="line;strokeWidth=1;html=1;" vertex="1" parent="hMW5H2m9D7a2tleL5P6j-1">
          <mxGeometry x="363" y="741" width="40" height="10" as="geometry" />
        </mxCell>
        <mxCell id="gxGbnO-F6uIn5kAuKY4p-23" style="edgeStyle=orthogonalEdgeStyle;rounded=0;html=1;labelBackgroundColor=none;startArrow=none;startFill=0;startSize=5;endArrow=classicThin;endFill=1;endSize=5;jettySize=auto;orthogonalLoop=1;strokeWidth=1;fontFamily=Verdana;fontSize=8" edge="1" parent="hMW5H2m9D7a2tleL5P6j-1">
          <mxGeometry relative="1" as="geometry">
            <mxPoint x="433" y="745.8" as="sourcePoint" />
            <mxPoint x="483" y="746" as="targetPoint" />
            <Array as="points">
              <mxPoint x="473" y="746" />
              <mxPoint x="473" y="746" />
            </Array>
          </mxGeometry>
        </mxCell>
        <mxCell id="gxGbnO-F6uIn5kAuKY4p-24" value="" style="ellipse;whiteSpace=wrap;html=1;rounded=0;shadow=0;labelBackgroundColor=none;strokeWidth=1;fontFamily=Verdana;fontSize=8;align=center;" vertex="1" parent="hMW5H2m9D7a2tleL5P6j-1">
          <mxGeometry x="623" y="729.5" width="30" height="30" as="geometry" />
        </mxCell>
        <mxCell id="gxGbnO-F6uIn5kAuKY4p-25" value="Passenger Details" style="swimlane;fillColor=#CCE5FF;fontSize=11;" vertex="1" parent="hMW5H2m9D7a2tleL5P6j-1">
          <mxGeometry x="484" y="681.5" width="100" height="120" as="geometry">
            <mxRectangle x="310" y="160" width="130" height="23" as="alternateBounds" />
          </mxGeometry>
        </mxCell>
        <mxCell id="gxGbnO-F6uIn5kAuKY4p-26" value="Enter detail prompt" style="text;html=1;strokeColor=none;fillColor=none;align=center;verticalAlign=middle;whiteSpace=wrap;rounded=0;labelBackgroundColor=none;labelBorderColor=none;" vertex="1" parent="gxGbnO-F6uIn5kAuKY4p-25">
          <mxGeometry x="30" y="65" width="60" height="30" as="geometry" />
        </mxCell>
        <mxCell id="gxGbnO-F6uIn5kAuKY4p-27" value="" style="line;strokeWidth=1;html=1;" vertex="1" parent="hMW5H2m9D7a2tleL5P6j-1">
          <mxGeometry x="583" y="738.5" width="40" height="10" as="geometry" />
        </mxCell>
        <mxCell id="gxGbnO-F6uIn5kAuKY4p-28" style="edgeStyle=orthogonalEdgeStyle;rounded=0;html=1;labelBackgroundColor=none;startArrow=none;startFill=0;startSize=5;endArrow=classicThin;endFill=1;endSize=5;jettySize=auto;orthogonalLoop=1;strokeWidth=1;fontFamily=Verdana;fontSize=8" edge="1" parent="hMW5H2m9D7a2tleL5P6j-1">
          <mxGeometry relative="1" as="geometry">
            <mxPoint x="653" y="743.3" as="sourcePoint" />
            <mxPoint x="703" y="743.5" as="targetPoint" />
            <Array as="points">
              <mxPoint x="693" y="743.5" />
              <mxPoint x="693" y="743.5" />
            </Array>
          </mxGeometry>
        </mxCell>
        <mxCell id="gxGbnO-F6uIn5kAuKY4p-29" value="" style="ellipse;whiteSpace=wrap;html=1;rounded=0;shadow=0;labelBackgroundColor=none;strokeWidth=1;fontFamily=Verdana;fontSize=8;align=center;" vertex="1" parent="hMW5H2m9D7a2tleL5P6j-1">
          <mxGeometry x="845" y="731.5" width="30" height="30" as="geometry" />
        </mxCell>
        <mxCell id="gxGbnO-F6uIn5kAuKY4p-30" value="Passenger Details" style="swimlane;fillColor=#CCE5FF;fontSize=11;" vertex="1" parent="hMW5H2m9D7a2tleL5P6j-1">
          <mxGeometry x="704" y="681.5" width="100" height="120" as="geometry">
            <mxRectangle x="310" y="160" width="130" height="23" as="alternateBounds" />
          </mxGeometry>
        </mxCell>
        <mxCell id="gxGbnO-F6uIn5kAuKY4p-31" value="Enter last name prompt" style="text;html=1;strokeColor=none;fillColor=none;align=center;verticalAlign=middle;whiteSpace=wrap;rounded=0;labelBackgroundColor=none;labelBorderColor=none;" vertex="1" parent="gxGbnO-F6uIn5kAuKY4p-30">
          <mxGeometry x="18" y="65" width="60" height="30" as="geometry" />
        </mxCell>
        <mxCell id="gxGbnO-F6uIn5kAuKY4p-32" value="" style="line;strokeWidth=1;html=1;" vertex="1" parent="hMW5H2m9D7a2tleL5P6j-1">
          <mxGeometry x="805" y="740.5" width="40" height="10" as="geometry" />
        </mxCell>
        <mxCell id="gxGbnO-F6uIn5kAuKY4p-33" style="edgeStyle=orthogonalEdgeStyle;rounded=0;html=1;labelBackgroundColor=none;startArrow=none;startFill=0;startSize=5;endArrow=classicThin;endFill=1;endSize=5;jettySize=auto;orthogonalLoop=1;strokeWidth=1;fontFamily=Verdana;fontSize=8" edge="1" parent="hMW5H2m9D7a2tleL5P6j-1">
          <mxGeometry relative="1" as="geometry">
            <mxPoint x="875" y="745.3" as="sourcePoint" />
            <mxPoint x="925" y="745.5" as="targetPoint" />
            <Array as="points">
              <mxPoint x="915" y="745.5" />
              <mxPoint x="915" y="745.5" />
            </Array>
          </mxGeometry>
        </mxCell>
        <mxCell id="gxGbnO-F6uIn5kAuKY4p-34" value="Type &#39;Buchanan&#39;" style="text;html=1;strokeColor=none;fillColor=none;align=center;verticalAlign=middle;whiteSpace=wrap;rounded=0;labelBackgroundColor=none;labelBorderColor=none;" vertex="1" parent="hMW5H2m9D7a2tleL5P6j-1">
          <mxGeometry x="831" y="769.5" width="60" height="30" as="geometry" />
        </mxCell>
        <mxCell id="gxGbnO-F6uIn5kAuKY4p-35" value="Tap &#39;done&#39;" style="text;html=1;strokeColor=none;fillColor=none;align=center;verticalAlign=middle;whiteSpace=wrap;rounded=0;labelBackgroundColor=none;labelBorderColor=none;" vertex="1" parent="hMW5H2m9D7a2tleL5P6j-1">
          <mxGeometry x="389" y="763" width="60" height="30" as="geometry" />
        </mxCell>
        <mxCell id="gxGbnO-F6uIn5kAuKY4p-36" value="Tap &#39;Last name&#39;" style="text;html=1;strokeColor=none;fillColor=none;align=center;verticalAlign=middle;whiteSpace=wrap;rounded=0;labelBackgroundColor=none;labelBorderColor=none;" vertex="1" parent="hMW5H2m9D7a2tleL5P6j-1">
          <mxGeometry x="609.5" y="765.5" width="60" height="30" as="geometry" />
        </mxCell>
        <mxCell id="cAQH9_gJyIEue2ys83xB-0" value="" style="ellipse;whiteSpace=wrap;html=1;rounded=0;shadow=0;labelBackgroundColor=none;strokeWidth=1;fontFamily=Verdana;fontSize=8;align=center;" vertex="1" parent="hMW5H2m9D7a2tleL5P6j-1">
          <mxGeometry x="1068" y="729.5" width="30" height="30" as="geometry" />
        </mxCell>
        <mxCell id="cAQH9_gJyIEue2ys83xB-1" value="Passenger Details" style="swimlane;fillColor=#CCE5FF;fontSize=11;" vertex="1" parent="hMW5H2m9D7a2tleL5P6j-1">
          <mxGeometry x="928" y="681.5" width="100" height="120" as="geometry">
            <mxRectangle x="310" y="160" width="130" height="23" as="alternateBounds" />
          </mxGeometry>
        </mxCell>
        <mxCell id="cAQH9_gJyIEue2ys83xB-2" value="Name entered" style="text;html=1;strokeColor=none;fillColor=none;align=center;verticalAlign=middle;whiteSpace=wrap;rounded=0;labelBackgroundColor=none;labelBorderColor=none;" vertex="1" parent="cAQH9_gJyIEue2ys83xB-1">
          <mxGeometry x="30" y="67" width="60" height="30" as="geometry" />
        </mxCell>
        <mxCell id="cAQH9_gJyIEue2ys83xB-3" value="" style="line;strokeWidth=1;html=1;" vertex="1" parent="hMW5H2m9D7a2tleL5P6j-1">
          <mxGeometry x="1028" y="738.5" width="40" height="10" as="geometry" />
        </mxCell>
        <mxCell id="cAQH9_gJyIEue2ys83xB-4" style="edgeStyle=orthogonalEdgeStyle;rounded=0;html=1;labelBackgroundColor=none;startArrow=none;startFill=0;startSize=5;endArrow=classicThin;endFill=1;endSize=5;jettySize=auto;orthogonalLoop=1;strokeWidth=1;fontFamily=Verdana;fontSize=8" edge="1" parent="hMW5H2m9D7a2tleL5P6j-1">
          <mxGeometry relative="1" as="geometry">
            <mxPoint x="1098" y="743.3" as="sourcePoint" />
            <mxPoint x="1148" y="743.5" as="targetPoint" />
            <Array as="points">
              <mxPoint x="1138" y="743.5" />
              <mxPoint x="1138" y="743.5" />
            </Array>
          </mxGeometry>
        </mxCell>
        <mxCell id="cAQH9_gJyIEue2ys83xB-5" value="" style="ellipse;whiteSpace=wrap;html=1;rounded=0;shadow=0;labelBackgroundColor=none;strokeWidth=1;fontFamily=Verdana;fontSize=8;align=center;" vertex="1" parent="hMW5H2m9D7a2tleL5P6j-1">
          <mxGeometry x="182" y="887" width="30" height="30" as="geometry" />
        </mxCell>
        <mxCell id="cAQH9_gJyIEue2ys83xB-6" value="Passenger Details" style="swimlane;fillColor=#CCE5FF;fontSize=11;" vertex="1" parent="hMW5H2m9D7a2tleL5P6j-1">
          <mxGeometry x="42" y="840" width="100" height="120" as="geometry">
            <mxRectangle x="310" y="160" width="130" height="23" as="alternateBounds" />
          </mxGeometry>
        </mxCell>
        <mxCell id="cAQH9_gJyIEue2ys83xB-7" value="Review" style="text;html=1;strokeColor=none;fillColor=none;align=center;verticalAlign=middle;whiteSpace=wrap;rounded=0;labelBackgroundColor=none;labelBorderColor=none;" vertex="1" parent="cAQH9_gJyIEue2ys83xB-6">
          <mxGeometry x="20" y="65" width="60" height="30" as="geometry" />
        </mxCell>
        <mxCell id="cAQH9_gJyIEue2ys83xB-8" value="" style="line;strokeWidth=1;html=1;" vertex="1" parent="hMW5H2m9D7a2tleL5P6j-1">
          <mxGeometry x="142" y="896" width="40" height="10" as="geometry" />
        </mxCell>
        <mxCell id="cAQH9_gJyIEue2ys83xB-9" style="edgeStyle=orthogonalEdgeStyle;rounded=0;html=1;labelBackgroundColor=none;startArrow=none;startFill=0;startSize=5;endArrow=classicThin;endFill=1;endSize=5;jettySize=auto;orthogonalLoop=1;strokeWidth=1;fontFamily=Verdana;fontSize=8" edge="1" parent="hMW5H2m9D7a2tleL5P6j-1">
          <mxGeometry relative="1" as="geometry">
            <mxPoint x="212" y="900.8" as="sourcePoint" />
            <mxPoint x="262" y="901" as="targetPoint" />
            <Array as="points">
              <mxPoint x="252" y="901" />
              <mxPoint x="252" y="901" />
            </Array>
          </mxGeometry>
        </mxCell>
        <mxCell id="cAQH9_gJyIEue2ys83xB-10" value="" style="ellipse;whiteSpace=wrap;html=1;rounded=0;shadow=0;labelBackgroundColor=none;strokeWidth=1;fontFamily=Verdana;fontSize=8;align=center;" vertex="1" parent="hMW5H2m9D7a2tleL5P6j-1">
          <mxGeometry x="403" y="888" width="30" height="30" as="geometry" />
        </mxCell>
        <mxCell id="cAQH9_gJyIEue2ys83xB-11" value="Passenger Details" style="swimlane;fillColor=#CCE5FF;fontSize=11;" vertex="1" parent="hMW5H2m9D7a2tleL5P6j-1">
          <mxGeometry x="263" y="824" width="100" height="160" as="geometry">
            <mxRectangle x="310" y="160" width="130" height="23" as="alternateBounds" />
          </mxGeometry>
        </mxCell>
        <mxCell id="cAQH9_gJyIEue2ys83xB-12" value="Add nore passengers&lt;br&gt;&lt;br&gt;review&lt;br&gt;&lt;br&gt;cta &#39;continue&#39;" style="text;html=1;strokeColor=none;fillColor=none;align=center;verticalAlign=middle;whiteSpace=wrap;rounded=0;labelBackgroundColor=none;labelBorderColor=none;" vertex="1" parent="cAQH9_gJyIEue2ys83xB-11">
          <mxGeometry x="30" y="67" width="60" height="30" as="geometry" />
        </mxCell>
        <mxCell id="cAQH9_gJyIEue2ys83xB-13" value="" style="line;strokeWidth=1;html=1;" vertex="1" parent="hMW5H2m9D7a2tleL5P6j-1">
          <mxGeometry x="363" y="897" width="40" height="10" as="geometry" />
        </mxCell>
        <mxCell id="cAQH9_gJyIEue2ys83xB-14" style="edgeStyle=orthogonalEdgeStyle;rounded=0;html=1;labelBackgroundColor=none;startArrow=none;startFill=0;startSize=5;endArrow=classicThin;endFill=1;endSize=5;jettySize=auto;orthogonalLoop=1;strokeWidth=1;fontFamily=Verdana;fontSize=8" edge="1" parent="hMW5H2m9D7a2tleL5P6j-1">
          <mxGeometry relative="1" as="geometry">
            <mxPoint x="433" y="901.8" as="sourcePoint" />
            <mxPoint x="483" y="902" as="targetPoint" />
            <Array as="points">
              <mxPoint x="473" y="902" />
              <mxPoint x="473" y="902" />
            </Array>
          </mxGeometry>
        </mxCell>
        <mxCell id="cAQH9_gJyIEue2ys83xB-15" value="" style="ellipse;whiteSpace=wrap;html=1;rounded=0;shadow=0;labelBackgroundColor=none;strokeWidth=1;fontFamily=Verdana;fontSize=8;align=center;" vertex="1" parent="hMW5H2m9D7a2tleL5P6j-1">
          <mxGeometry x="624" y="886" width="30" height="30" as="geometry" />
        </mxCell>
        <mxCell id="cAQH9_gJyIEue2ys83xB-16" value="Who&#39;s Paying?" style="swimlane;fillColor=#CCCCFF;" vertex="1" parent="hMW5H2m9D7a2tleL5P6j-1">
          <mxGeometry x="484" y="840" width="100" height="120" as="geometry">
            <mxRectangle x="310" y="160" width="130" height="23" as="alternateBounds" />
          </mxGeometry>
        </mxCell>
        <mxCell id="cAQH9_gJyIEue2ys83xB-17" value="Select payer" style="text;html=1;strokeColor=none;fillColor=none;align=center;verticalAlign=middle;whiteSpace=wrap;rounded=0;labelBackgroundColor=none;labelBorderColor=none;" vertex="1" parent="cAQH9_gJyIEue2ys83xB-16">
          <mxGeometry x="18" y="65" width="60" height="30" as="geometry" />
        </mxCell>
        <mxCell id="cAQH9_gJyIEue2ys83xB-18" value="" style="line;strokeWidth=1;html=1;" vertex="1" parent="hMW5H2m9D7a2tleL5P6j-1">
          <mxGeometry x="584" y="895" width="40" height="10" as="geometry" />
        </mxCell>
        <mxCell id="cAQH9_gJyIEue2ys83xB-19" style="edgeStyle=orthogonalEdgeStyle;rounded=0;html=1;labelBackgroundColor=none;startArrow=none;startFill=0;startSize=5;endArrow=classicThin;endFill=1;endSize=5;jettySize=auto;orthogonalLoop=1;strokeWidth=1;fontFamily=Verdana;fontSize=8" edge="1" parent="hMW5H2m9D7a2tleL5P6j-1">
          <mxGeometry relative="1" as="geometry">
            <mxPoint x="654" y="899.8" as="sourcePoint" />
            <mxPoint x="704" y="900" as="targetPoint" />
            <Array as="points">
              <mxPoint x="694" y="900" />
              <mxPoint x="694" y="900" />
            </Array>
          </mxGeometry>
        </mxCell>
        <mxCell id="cAQH9_gJyIEue2ys83xB-20" value="Tap &#39;done&#39;" style="text;html=1;strokeColor=none;fillColor=none;align=center;verticalAlign=middle;whiteSpace=wrap;rounded=0;labelBackgroundColor=none;labelBorderColor=none;" vertex="1" parent="hMW5H2m9D7a2tleL5P6j-1">
          <mxGeometry x="1053" y="761.5" width="60" height="30" as="geometry" />
        </mxCell>
        <mxCell id="cAQH9_gJyIEue2ys83xB-21" value="Tap &#39;continue&#39;" style="text;html=1;strokeColor=none;fillColor=none;align=center;verticalAlign=middle;whiteSpace=wrap;rounded=0;labelBackgroundColor=none;labelBorderColor=none;" vertex="1" parent="hMW5H2m9D7a2tleL5P6j-1">
          <mxGeometry x="167" y="925" width="60" height="30" as="geometry" />
        </mxCell>
        <mxCell id="cAQH9_gJyIEue2ys83xB-22" value="Tap &#39;continue&#39;" style="text;html=1;strokeColor=none;fillColor=none;align=center;verticalAlign=middle;whiteSpace=wrap;rounded=0;labelBackgroundColor=none;labelBorderColor=none;" vertex="1" parent="hMW5H2m9D7a2tleL5P6j-1">
          <mxGeometry x="389.5" y="927" width="60" height="30" as="geometry" />
        </mxCell>
        <mxCell id="cAQH9_gJyIEue2ys83xB-23" value="Tap &#39;Mr David Buchanan&#39;" style="text;html=1;strokeColor=none;fillColor=none;align=center;verticalAlign=middle;whiteSpace=wrap;rounded=0;labelBackgroundColor=none;labelBorderColor=none;" vertex="1" parent="hMW5H2m9D7a2tleL5P6j-1">
          <mxGeometry x="598" y="924" width="84" height="30" as="geometry" />
        </mxCell>
        <mxCell id="55pO3nSOFwqiScAaFIf0-0" value="" style="ellipse;whiteSpace=wrap;html=1;rounded=0;shadow=0;labelBackgroundColor=none;strokeWidth=1;fontFamily=Verdana;fontSize=8;align=center;" vertex="1" parent="hMW5H2m9D7a2tleL5P6j-1">
          <mxGeometry x="846" y="884" width="30" height="30" as="geometry" />
        </mxCell>
        <mxCell id="55pO3nSOFwqiScAaFIf0-1" value="Who&#39;s Paying?" style="swimlane;fillColor=#CCCCFF;" vertex="1" parent="hMW5H2m9D7a2tleL5P6j-1">
          <mxGeometry x="706" y="840" width="100" height="120" as="geometry">
            <mxRectangle x="310" y="160" width="130" height="23" as="alternateBounds" />
          </mxGeometry>
        </mxCell>
        <mxCell id="55pO3nSOFwqiScAaFIf0-2" value="Enter details" style="text;html=1;strokeColor=none;fillColor=none;align=center;verticalAlign=middle;whiteSpace=wrap;rounded=0;" vertex="1" parent="55pO3nSOFwqiScAaFIf0-1">
          <mxGeometry x="30" y="70" width="60" height="30" as="geometry" />
        </mxCell>
        <mxCell id="55pO3nSOFwqiScAaFIf0-3" value="" style="line;strokeWidth=1;html=1;" vertex="1" parent="hMW5H2m9D7a2tleL5P6j-1">
          <mxGeometry x="806" y="893" width="40" height="10" as="geometry" />
        </mxCell>
        <mxCell id="55pO3nSOFwqiScAaFIf0-4" style="edgeStyle=orthogonalEdgeStyle;rounded=0;html=1;labelBackgroundColor=none;startArrow=none;startFill=0;startSize=5;endArrow=classicThin;endFill=1;endSize=5;jettySize=auto;orthogonalLoop=1;strokeWidth=1;fontFamily=Verdana;fontSize=8" edge="1" parent="hMW5H2m9D7a2tleL5P6j-1">
          <mxGeometry relative="1" as="geometry">
            <mxPoint x="876" y="897.8" as="sourcePoint" />
            <mxPoint x="926" y="898" as="targetPoint" />
            <Array as="points">
              <mxPoint x="916" y="898" />
              <mxPoint x="916" y="898" />
            </Array>
          </mxGeometry>
        </mxCell>
        <mxCell id="55pO3nSOFwqiScAaFIf0-5" value="" style="ellipse;whiteSpace=wrap;html=1;rounded=0;shadow=0;labelBackgroundColor=none;strokeWidth=1;fontFamily=Verdana;fontSize=8;align=center;" vertex="1" parent="hMW5H2m9D7a2tleL5P6j-1">
          <mxGeometry x="1066" y="883.5" width="30" height="30" as="geometry" />
        </mxCell>
        <mxCell id="55pO3nSOFwqiScAaFIf0-6" value="Who&#39;s Paying?" style="swimlane;fillColor=#CCCCFF;" vertex="1" parent="hMW5H2m9D7a2tleL5P6j-1">
          <mxGeometry x="926" y="840" width="100" height="120" as="geometry">
            <mxRectangle x="310" y="160" width="130" height="23" as="alternateBounds" />
          </mxGeometry>
        </mxCell>
        <mxCell id="55pO3nSOFwqiScAaFIf0-7" value="Enter email prompt" style="text;html=1;strokeColor=none;fillColor=none;align=center;verticalAlign=middle;whiteSpace=wrap;rounded=0;" vertex="1" parent="55pO3nSOFwqiScAaFIf0-6">
          <mxGeometry x="30" y="70" width="60" height="30" as="geometry" />
        </mxCell>
        <mxCell id="55pO3nSOFwqiScAaFIf0-8" value="" style="line;strokeWidth=1;html=1;" vertex="1" parent="hMW5H2m9D7a2tleL5P6j-1">
          <mxGeometry x="1026" y="892.5" width="40" height="10" as="geometry" />
        </mxCell>
        <mxCell id="55pO3nSOFwqiScAaFIf0-9" style="edgeStyle=orthogonalEdgeStyle;rounded=0;html=1;labelBackgroundColor=none;startArrow=none;startFill=0;startSize=5;endArrow=classicThin;endFill=1;endSize=5;jettySize=auto;orthogonalLoop=1;strokeWidth=1;fontFamily=Verdana;fontSize=8" edge="1" parent="hMW5H2m9D7a2tleL5P6j-1">
          <mxGeometry relative="1" as="geometry">
            <mxPoint x="1096" y="897.3" as="sourcePoint" />
            <mxPoint x="1146" y="897.5" as="targetPoint" />
            <Array as="points">
              <mxPoint x="1136" y="897.5" />
              <mxPoint x="1136" y="897.5" />
            </Array>
          </mxGeometry>
        </mxCell>
        <mxCell id="55pO3nSOFwqiScAaFIf0-10" value="" style="ellipse;whiteSpace=wrap;html=1;rounded=0;shadow=0;labelBackgroundColor=none;strokeWidth=1;fontFamily=Verdana;fontSize=8;align=center;" vertex="1" parent="hMW5H2m9D7a2tleL5P6j-1">
          <mxGeometry x="180" y="1044" width="30" height="30" as="geometry" />
        </mxCell>
        <mxCell id="55pO3nSOFwqiScAaFIf0-11" value="Who&#39;s Paying?" style="swimlane;startSize=23;fillColor=#CCCCFF;" vertex="1" parent="hMW5H2m9D7a2tleL5P6j-1">
          <mxGeometry x="40" y="1000" width="100" height="120" as="geometry">
            <mxRectangle x="310" y="160" width="130" height="23" as="alternateBounds" />
          </mxGeometry>
        </mxCell>
        <mxCell id="55pO3nSOFwqiScAaFIf0-12" value="Enter phone number prompt" style="text;html=1;strokeColor=none;fillColor=none;align=center;verticalAlign=middle;whiteSpace=wrap;rounded=0;" vertex="1" parent="55pO3nSOFwqiScAaFIf0-11">
          <mxGeometry x="30" y="70" width="60" height="30" as="geometry" />
        </mxCell>
        <mxCell id="55pO3nSOFwqiScAaFIf0-13" value="" style="line;strokeWidth=1;html=1;" vertex="1" parent="hMW5H2m9D7a2tleL5P6j-1">
          <mxGeometry x="140" y="1053" width="40" height="10" as="geometry" />
        </mxCell>
        <mxCell id="55pO3nSOFwqiScAaFIf0-14" style="edgeStyle=orthogonalEdgeStyle;rounded=0;html=1;labelBackgroundColor=none;startArrow=none;startFill=0;startSize=5;endArrow=classicThin;endFill=1;endSize=5;jettySize=auto;orthogonalLoop=1;strokeWidth=1;fontFamily=Verdana;fontSize=8" edge="1" parent="hMW5H2m9D7a2tleL5P6j-1">
          <mxGeometry relative="1" as="geometry">
            <mxPoint x="210" y="1057.8" as="sourcePoint" />
            <mxPoint x="260" y="1058" as="targetPoint" />
            <Array as="points">
              <mxPoint x="250" y="1058" />
              <mxPoint x="250" y="1058" />
            </Array>
          </mxGeometry>
        </mxCell>
        <mxCell id="55pO3nSOFwqiScAaFIf0-15" value="" style="ellipse;whiteSpace=wrap;html=1;rounded=0;shadow=0;labelBackgroundColor=none;strokeWidth=1;fontFamily=Verdana;fontSize=8;align=center;" vertex="1" parent="hMW5H2m9D7a2tleL5P6j-1">
          <mxGeometry x="400" y="1042" width="30" height="30" as="geometry" />
        </mxCell>
        <mxCell id="55pO3nSOFwqiScAaFIf0-16" value="Who&#39;s Paying?" style="swimlane;fillColor=#CCCCFF;" vertex="1" parent="hMW5H2m9D7a2tleL5P6j-1">
          <mxGeometry x="261" y="1000" width="98" height="120" as="geometry">
            <mxRectangle x="310" y="160" width="130" height="23" as="alternateBounds" />
          </mxGeometry>
        </mxCell>
        <mxCell id="55pO3nSOFwqiScAaFIf0-17" value="Enter number prompt" style="text;html=1;strokeColor=none;fillColor=none;align=center;verticalAlign=middle;whiteSpace=wrap;rounded=0;" vertex="1" parent="55pO3nSOFwqiScAaFIf0-16">
          <mxGeometry x="14" y="58.5" width="60" height="30" as="geometry" />
        </mxCell>
        <mxCell id="55pO3nSOFwqiScAaFIf0-18" value="" style="line;strokeWidth=1;html=1;" vertex="1" parent="hMW5H2m9D7a2tleL5P6j-1">
          <mxGeometry x="360" y="1051" width="40" height="10" as="geometry" />
        </mxCell>
        <mxCell id="55pO3nSOFwqiScAaFIf0-19" style="edgeStyle=orthogonalEdgeStyle;rounded=0;html=1;labelBackgroundColor=none;startArrow=none;startFill=0;startSize=5;endArrow=classicThin;endFill=1;endSize=5;jettySize=auto;orthogonalLoop=1;strokeWidth=1;fontFamily=Verdana;fontSize=8" edge="1" parent="hMW5H2m9D7a2tleL5P6j-1">
          <mxGeometry relative="1" as="geometry">
            <mxPoint x="430" y="1055.8" as="sourcePoint" />
            <mxPoint x="480" y="1056" as="targetPoint" />
            <Array as="points">
              <mxPoint x="470" y="1056" />
              <mxPoint x="470" y="1056" />
            </Array>
          </mxGeometry>
        </mxCell>
        <mxCell id="55pO3nSOFwqiScAaFIf0-20" value="Tap &#39;Email&#39;" style="text;html=1;strokeColor=none;fillColor=none;align=center;verticalAlign=middle;whiteSpace=wrap;rounded=0;labelBackgroundColor=none;labelBorderColor=none;" vertex="1" parent="hMW5H2m9D7a2tleL5P6j-1">
          <mxGeometry x="831" y="917" width="60" height="30" as="geometry" />
        </mxCell>
        <mxCell id="55pO3nSOFwqiScAaFIf0-21" value="Type &#39;12345678910&#39; and Tap &#39;done&#39;" style="text;html=1;strokeColor=none;fillColor=none;align=center;verticalAlign=middle;whiteSpace=wrap;rounded=0;labelBackgroundColor=none;labelBorderColor=none;" vertex="1" parent="hMW5H2m9D7a2tleL5P6j-1">
          <mxGeometry x="374" y="1082" width="85" height="30" as="geometry" />
        </mxCell>
        <mxCell id="55pO3nSOFwqiScAaFIf0-22" value="Tap &#39;phone number&#39;" style="text;html=1;strokeColor=none;fillColor=none;align=center;verticalAlign=middle;whiteSpace=wrap;rounded=0;labelBackgroundColor=none;labelBorderColor=none;" vertex="1" parent="hMW5H2m9D7a2tleL5P6j-1">
          <mxGeometry x="157.5" y="1082" width="73.5" height="30" as="geometry" />
        </mxCell>
        <mxCell id="55pO3nSOFwqiScAaFIf0-23" value="Type &#39;xxxx @gmail.com&#39; and Tap &#39;done&#39;" style="text;html=1;strokeColor=none;fillColor=none;align=center;verticalAlign=middle;whiteSpace=wrap;rounded=0;labelBackgroundColor=none;labelBorderColor=none;" vertex="1" parent="hMW5H2m9D7a2tleL5P6j-1">
          <mxGeometry x="1040" y="928.5" width="85" height="30" as="geometry" />
        </mxCell>
        <mxCell id="mVMoyHdj5OauGA6E5Nc9-21" value="" style="ellipse;whiteSpace=wrap;html=1;rounded=0;shadow=0;labelBackgroundColor=none;strokeWidth=1;fontFamily=Verdana;fontSize=8;align=center;" vertex="1" parent="hMW5H2m9D7a2tleL5P6j-1">
          <mxGeometry x="619" y="1042" width="30" height="30" as="geometry" />
        </mxCell>
        <mxCell id="mVMoyHdj5OauGA6E5Nc9-22" value="Who&#39;s Paying?" style="swimlane;fillColor=#CCCCFF;" vertex="1" parent="hMW5H2m9D7a2tleL5P6j-1">
          <mxGeometry x="478" y="1000" width="101" height="120" as="geometry">
            <mxRectangle x="310" y="160" width="130" height="23" as="alternateBounds" />
          </mxGeometry>
        </mxCell>
        <mxCell id="mVMoyHdj5OauGA6E5Nc9-23" value="Seat selection prompt" style="text;html=1;strokeColor=none;fillColor=none;align=center;verticalAlign=middle;whiteSpace=wrap;rounded=0;" vertex="1" parent="mVMoyHdj5OauGA6E5Nc9-22">
          <mxGeometry x="18" y="56" width="60" height="30" as="geometry" />
        </mxCell>
        <mxCell id="mVMoyHdj5OauGA6E5Nc9-24" value="" style="line;strokeWidth=1;html=1;" vertex="1" parent="hMW5H2m9D7a2tleL5P6j-1">
          <mxGeometry x="579" y="1051" width="40" height="10" as="geometry" />
        </mxCell>
        <mxCell id="mVMoyHdj5OauGA6E5Nc9-25" style="edgeStyle=orthogonalEdgeStyle;rounded=0;html=1;labelBackgroundColor=none;startArrow=none;startFill=0;startSize=5;endArrow=classicThin;endFill=1;endSize=5;jettySize=auto;orthogonalLoop=1;strokeWidth=1;fontFamily=Verdana;fontSize=8" edge="1" parent="hMW5H2m9D7a2tleL5P6j-1">
          <mxGeometry relative="1" as="geometry">
            <mxPoint x="649" y="1055.8" as="sourcePoint" />
            <mxPoint x="699" y="1056" as="targetPoint" />
            <Array as="points">
              <mxPoint x="689" y="1056" />
              <mxPoint x="689" y="1056" />
            </Array>
          </mxGeometry>
        </mxCell>
        <mxCell id="mVMoyHdj5OauGA6E5Nc9-26" value="" style="ellipse;whiteSpace=wrap;html=1;rounded=0;shadow=0;labelBackgroundColor=none;strokeWidth=1;fontFamily=Verdana;fontSize=8;align=center;" vertex="1" parent="hMW5H2m9D7a2tleL5P6j-1">
          <mxGeometry x="849" y="1042" width="30" height="30" as="geometry" />
        </mxCell>
        <mxCell id="mVMoyHdj5OauGA6E5Nc9-27" value="Seat Selection" style="swimlane;fillColor=#E5CCFF;" vertex="1" parent="hMW5H2m9D7a2tleL5P6j-1">
          <mxGeometry x="703" y="1000" width="106" height="120" as="geometry">
            <mxRectangle x="310" y="160" width="130" height="23" as="alternateBounds" />
          </mxGeometry>
        </mxCell>
        <mxCell id="mVMoyHdj5OauGA6E5Nc9-28" value="Plane layout presented" style="text;html=1;strokeColor=none;fillColor=none;align=center;verticalAlign=middle;whiteSpace=wrap;rounded=0;" vertex="1" parent="mVMoyHdj5OauGA6E5Nc9-27">
          <mxGeometry x="30" y="69" width="60" height="30" as="geometry" />
        </mxCell>
        <mxCell id="mVMoyHdj5OauGA6E5Nc9-29" value="" style="line;strokeWidth=1;html=1;" vertex="1" parent="hMW5H2m9D7a2tleL5P6j-1">
          <mxGeometry x="809" y="1051" width="40" height="10" as="geometry" />
        </mxCell>
        <mxCell id="mVMoyHdj5OauGA6E5Nc9-30" style="edgeStyle=orthogonalEdgeStyle;rounded=0;html=1;labelBackgroundColor=none;startArrow=none;startFill=0;startSize=5;endArrow=classicThin;endFill=1;endSize=5;jettySize=auto;orthogonalLoop=1;strokeWidth=1;fontFamily=Verdana;fontSize=8" edge="1" parent="hMW5H2m9D7a2tleL5P6j-1">
          <mxGeometry relative="1" as="geometry">
            <mxPoint x="879" y="1055.8" as="sourcePoint" />
            <mxPoint x="929" y="1056" as="targetPoint" />
            <Array as="points">
              <mxPoint x="919" y="1056" />
              <mxPoint x="919" y="1056" />
            </Array>
          </mxGeometry>
        </mxCell>
        <mxCell id="mVMoyHdj5OauGA6E5Nc9-31" value="" style="ellipse;whiteSpace=wrap;html=1;rounded=0;shadow=0;labelBackgroundColor=none;strokeWidth=1;fontFamily=Verdana;fontSize=8;align=center;" vertex="1" parent="hMW5H2m9D7a2tleL5P6j-1">
          <mxGeometry x="1069" y="1042" width="30" height="30" as="geometry" />
        </mxCell>
        <mxCell id="mVMoyHdj5OauGA6E5Nc9-32" value="Seat Selection" style="swimlane;fillColor=#E5CCFF;" vertex="1" parent="hMW5H2m9D7a2tleL5P6j-1">
          <mxGeometry x="930" y="1000" width="99" height="120" as="geometry">
            <mxRectangle x="310" y="160" width="130" height="23" as="alternateBounds" />
          </mxGeometry>
        </mxCell>
        <mxCell id="mVMoyHdj5OauGA6E5Nc9-33" value="Seat layout" style="text;html=1;strokeColor=none;fillColor=none;align=center;verticalAlign=middle;whiteSpace=wrap;rounded=0;" vertex="1" parent="mVMoyHdj5OauGA6E5Nc9-32">
          <mxGeometry x="12" y="56" width="60" height="30" as="geometry" />
        </mxCell>
        <mxCell id="mVMoyHdj5OauGA6E5Nc9-34" value="" style="line;strokeWidth=1;html=1;" vertex="1" parent="hMW5H2m9D7a2tleL5P6j-1">
          <mxGeometry x="1029" y="1051" width="40" height="10" as="geometry" />
        </mxCell>
        <mxCell id="mVMoyHdj5OauGA6E5Nc9-35" style="edgeStyle=orthogonalEdgeStyle;rounded=0;html=1;labelBackgroundColor=none;startArrow=none;startFill=0;startSize=5;endArrow=classicThin;endFill=1;endSize=5;jettySize=auto;orthogonalLoop=1;strokeWidth=1;fontFamily=Verdana;fontSize=8" edge="1" parent="hMW5H2m9D7a2tleL5P6j-1">
          <mxGeometry relative="1" as="geometry">
            <mxPoint x="1099" y="1055.8" as="sourcePoint" />
            <mxPoint x="1149" y="1056" as="targetPoint" />
            <Array as="points">
              <mxPoint x="1139" y="1056" />
              <mxPoint x="1139" y="1056" />
            </Array>
          </mxGeometry>
        </mxCell>
        <mxCell id="mVMoyHdj5OauGA6E5Nc9-36" value="Payment" style="swimlane;fillColor=#FFCCFF;" vertex="1" parent="hMW5H2m9D7a2tleL5P6j-1">
          <mxGeometry x="641" y="1200" width="99" height="120" as="geometry">
            <mxRectangle x="310" y="160" width="130" height="23" as="alternateBounds" />
          </mxGeometry>
        </mxCell>
        <mxCell id="mVMoyHdj5OauGA6E5Nc9-37" value="Enter details" style="text;html=1;strokeColor=none;fillColor=none;align=center;verticalAlign=middle;whiteSpace=wrap;rounded=0;" vertex="1" parent="mVMoyHdj5OauGA6E5Nc9-36">
          <mxGeometry x="17" y="45" width="60" height="30" as="geometry" />
        </mxCell>
        <mxCell id="mVMoyHdj5OauGA6E5Nc9-38" value="Tap &#39;select seats&#39;" style="text;html=1;strokeColor=none;fillColor=none;align=center;verticalAlign=middle;whiteSpace=wrap;rounded=0;labelBackgroundColor=none;labelBorderColor=none;" vertex="1" parent="hMW5H2m9D7a2tleL5P6j-1">
          <mxGeometry x="604" y="1079" width="60" height="30" as="geometry" />
        </mxCell>
        <mxCell id="mVMoyHdj5OauGA6E5Nc9-39" value="Tap on desired seat" style="text;html=1;strokeColor=none;fillColor=none;align=center;verticalAlign=middle;whiteSpace=wrap;rounded=0;labelBackgroundColor=none;labelBorderColor=none;" vertex="1" parent="hMW5H2m9D7a2tleL5P6j-1">
          <mxGeometry x="827" y="1079" width="75" height="30" as="geometry" />
        </mxCell>
        <mxCell id="mVMoyHdj5OauGA6E5Nc9-40" value="Tap &#39;done&#39;" style="text;html=1;strokeColor=none;fillColor=none;align=center;verticalAlign=middle;whiteSpace=wrap;rounded=0;labelBackgroundColor=none;labelBorderColor=none;" vertex="1" parent="hMW5H2m9D7a2tleL5P6j-1">
          <mxGeometry x="1049.5" y="1074" width="75" height="30" as="geometry" />
        </mxCell>
      </root>
    </mxGraphModel>
  </diagram>
  <diagram name="Page-3" id="c7488fd3-1785-93aa-aadb-54a6760d102a">
    <mxGraphModel dx="1182" dy="764" grid="1" gridSize="10" guides="1" tooltips="1" connect="1" arrows="1" fold="1" page="1" pageScale="1" pageWidth="1100" pageHeight="850" background="none" math="0" shadow="0">
      <root>
        <mxCell id="0" />
        <mxCell id="1" parent="0" />
        <mxCell id="2b4e8129b02d487f-5" value="" style="ellipse;whiteSpace=wrap;html=1;rounded=0;shadow=0;labelBackgroundColor=none;strokeWidth=1;fontFamily=Verdana;fontSize=8;align=center;" parent="1" vertex="1">
          <mxGeometry x="200" y="107" width="30" height="30" as="geometry" />
        </mxCell>
        <mxCell id="qFbmU129dsHxOHRwsqZK-1" value="Who&#39;s Paying?" style="swimlane;fillColor=#CCCCFF;" parent="1" vertex="1">
          <mxGeometry x="40" y="40" width="120" height="160" as="geometry">
            <mxRectangle x="310" y="160" width="130" height="23" as="alternateBounds" />
          </mxGeometry>
        </mxCell>
        <mxCell id="LnXnm2AS40Ky0EEoSlD5-1" value="Seat selection prompt" style="text;html=1;strokeColor=none;fillColor=none;align=center;verticalAlign=middle;whiteSpace=wrap;rounded=0;" vertex="1" parent="qFbmU129dsHxOHRwsqZK-1">
          <mxGeometry x="30" y="69" width="60" height="30" as="geometry" />
        </mxCell>
        <mxCell id="qFbmU129dsHxOHRwsqZK-3" value="" style="line;strokeWidth=1;html=1;" parent="1" vertex="1">
          <mxGeometry x="160" y="116" width="40" height="10" as="geometry" />
        </mxCell>
        <mxCell id="qFbmU129dsHxOHRwsqZK-4" style="edgeStyle=orthogonalEdgeStyle;rounded=0;html=1;labelBackgroundColor=none;startArrow=none;startFill=0;startSize=5;endArrow=classicThin;endFill=1;endSize=5;jettySize=auto;orthogonalLoop=1;strokeWidth=1;fontFamily=Verdana;fontSize=8" parent="1" edge="1">
          <mxGeometry relative="1" as="geometry">
            <mxPoint x="230" y="120.8" as="sourcePoint" />
            <mxPoint x="280" y="121" as="targetPoint" />
            <Array as="points">
              <mxPoint x="270" y="121" />
              <mxPoint x="270" y="121" />
            </Array>
          </mxGeometry>
        </mxCell>
        <mxCell id="qFbmU129dsHxOHRwsqZK-5" value="" style="ellipse;whiteSpace=wrap;html=1;rounded=0;shadow=0;labelBackgroundColor=none;strokeWidth=1;fontFamily=Verdana;fontSize=8;align=center;" parent="1" vertex="1">
          <mxGeometry x="440" y="107" width="30" height="30" as="geometry" />
        </mxCell>
        <mxCell id="qFbmU129dsHxOHRwsqZK-6" value="Seat Selection" style="swimlane;fillColor=#E5CCFF;" parent="1" vertex="1">
          <mxGeometry x="280" y="40" width="120" height="160" as="geometry">
            <mxRectangle x="310" y="160" width="130" height="23" as="alternateBounds" />
          </mxGeometry>
        </mxCell>
        <mxCell id="LnXnm2AS40Ky0EEoSlD5-2" value="Plane layout presented" style="text;html=1;strokeColor=none;fillColor=none;align=center;verticalAlign=middle;whiteSpace=wrap;rounded=0;" vertex="1" parent="qFbmU129dsHxOHRwsqZK-6">
          <mxGeometry x="30" y="69" width="60" height="30" as="geometry" />
        </mxCell>
        <mxCell id="qFbmU129dsHxOHRwsqZK-7" value="" style="line;strokeWidth=1;html=1;" parent="1" vertex="1">
          <mxGeometry x="400" y="116" width="40" height="10" as="geometry" />
        </mxCell>
        <mxCell id="qFbmU129dsHxOHRwsqZK-8" style="edgeStyle=orthogonalEdgeStyle;rounded=0;html=1;labelBackgroundColor=none;startArrow=none;startFill=0;startSize=5;endArrow=classicThin;endFill=1;endSize=5;jettySize=auto;orthogonalLoop=1;strokeWidth=1;fontFamily=Verdana;fontSize=8" parent="1" edge="1">
          <mxGeometry relative="1" as="geometry">
            <mxPoint x="470" y="120.80000000000001" as="sourcePoint" />
            <mxPoint x="520" y="121" as="targetPoint" />
            <Array as="points">
              <mxPoint x="510" y="121" />
              <mxPoint x="510" y="121" />
            </Array>
          </mxGeometry>
        </mxCell>
        <mxCell id="qFbmU129dsHxOHRwsqZK-9" value="" style="ellipse;whiteSpace=wrap;html=1;rounded=0;shadow=0;labelBackgroundColor=none;strokeWidth=1;fontFamily=Verdana;fontSize=8;align=center;" parent="1" vertex="1">
          <mxGeometry x="680" y="107" width="30" height="30" as="geometry" />
        </mxCell>
        <mxCell id="qFbmU129dsHxOHRwsqZK-10" value="Seat Selection" style="swimlane;fillColor=#E5CCFF;" parent="1" vertex="1">
          <mxGeometry x="520" y="40" width="120" height="160" as="geometry">
            <mxRectangle x="310" y="160" width="130" height="23" as="alternateBounds" />
          </mxGeometry>
        </mxCell>
        <mxCell id="LnXnm2AS40Ky0EEoSlD5-3" value="Seat layout" style="text;html=1;strokeColor=none;fillColor=none;align=center;verticalAlign=middle;whiteSpace=wrap;rounded=0;" vertex="1" parent="qFbmU129dsHxOHRwsqZK-10">
          <mxGeometry x="30" y="67" width="60" height="30" as="geometry" />
        </mxCell>
        <mxCell id="qFbmU129dsHxOHRwsqZK-11" value="" style="line;strokeWidth=1;html=1;" parent="1" vertex="1">
          <mxGeometry x="640" y="116" width="40" height="10" as="geometry" />
        </mxCell>
        <mxCell id="qFbmU129dsHxOHRwsqZK-12" style="edgeStyle=orthogonalEdgeStyle;rounded=0;html=1;labelBackgroundColor=none;startArrow=none;startFill=0;startSize=5;endArrow=classicThin;endFill=1;endSize=5;jettySize=auto;orthogonalLoop=1;strokeWidth=1;fontFamily=Verdana;fontSize=8" parent="1" edge="1">
          <mxGeometry relative="1" as="geometry">
            <mxPoint x="710" y="120.79999999999995" as="sourcePoint" />
            <mxPoint x="760" y="121" as="targetPoint" />
            <Array as="points">
              <mxPoint x="750" y="121" />
              <mxPoint x="750" y="121" />
            </Array>
          </mxGeometry>
        </mxCell>
        <mxCell id="qFbmU129dsHxOHRwsqZK-13" value="" style="ellipse;whiteSpace=wrap;html=1;rounded=0;shadow=0;labelBackgroundColor=none;strokeWidth=1;fontFamily=Verdana;fontSize=8;align=center;" parent="1" vertex="1">
          <mxGeometry x="920" y="107" width="30" height="30" as="geometry" />
        </mxCell>
        <mxCell id="qFbmU129dsHxOHRwsqZK-14" value="Payment" style="swimlane;fillColor=#FFCCFF;" parent="1" vertex="1">
          <mxGeometry x="760" y="40" width="120" height="160" as="geometry">
            <mxRectangle x="310" y="160" width="130" height="23" as="alternateBounds" />
          </mxGeometry>
        </mxCell>
        <mxCell id="LnXnm2AS40Ky0EEoSlD5-4" value="Enter details" style="text;html=1;strokeColor=none;fillColor=none;align=center;verticalAlign=middle;whiteSpace=wrap;rounded=0;" vertex="1" parent="qFbmU129dsHxOHRwsqZK-14">
          <mxGeometry x="30" y="65" width="60" height="30" as="geometry" />
        </mxCell>
        <mxCell id="qFbmU129dsHxOHRwsqZK-15" value="" style="line;strokeWidth=1;html=1;" parent="1" vertex="1">
          <mxGeometry x="880" y="116" width="40" height="10" as="geometry" />
        </mxCell>
        <mxCell id="qFbmU129dsHxOHRwsqZK-16" style="edgeStyle=orthogonalEdgeStyle;rounded=0;html=1;labelBackgroundColor=none;startArrow=none;startFill=0;startSize=5;endArrow=classicThin;endFill=1;endSize=5;jettySize=auto;orthogonalLoop=1;strokeWidth=1;fontFamily=Verdana;fontSize=8" parent="1" edge="1">
          <mxGeometry relative="1" as="geometry">
            <mxPoint x="950" y="120.79999999999995" as="sourcePoint" />
            <mxPoint x="1000" y="121" as="targetPoint" />
            <Array as="points">
              <mxPoint x="990" y="121" />
              <mxPoint x="990" y="121" />
            </Array>
          </mxGeometry>
        </mxCell>
        <mxCell id="qFbmU129dsHxOHRwsqZK-17" value="" style="ellipse;whiteSpace=wrap;html=1;rounded=0;shadow=0;labelBackgroundColor=none;strokeWidth=1;fontFamily=Verdana;fontSize=8;align=center;" parent="1" vertex="1">
          <mxGeometry x="200" y="307" width="30" height="30" as="geometry" />
        </mxCell>
        <mxCell id="qFbmU129dsHxOHRwsqZK-18" value="Vertical Container" style="swimlane;" parent="1" vertex="1">
          <mxGeometry x="40" y="240" width="120" height="160" as="geometry">
            <mxRectangle x="310" y="160" width="130" height="23" as="alternateBounds" />
          </mxGeometry>
        </mxCell>
        <mxCell id="qFbmU129dsHxOHRwsqZK-19" value="" style="line;strokeWidth=1;html=1;" parent="1" vertex="1">
          <mxGeometry x="160" y="316" width="40" height="10" as="geometry" />
        </mxCell>
        <mxCell id="qFbmU129dsHxOHRwsqZK-20" style="edgeStyle=orthogonalEdgeStyle;rounded=0;html=1;labelBackgroundColor=none;startArrow=none;startFill=0;startSize=5;endArrow=classicThin;endFill=1;endSize=5;jettySize=auto;orthogonalLoop=1;strokeWidth=1;fontFamily=Verdana;fontSize=8" parent="1" edge="1">
          <mxGeometry relative="1" as="geometry">
            <mxPoint x="230" y="320.79999999999995" as="sourcePoint" />
            <mxPoint x="280" y="321" as="targetPoint" />
            <Array as="points">
              <mxPoint x="270" y="321" />
              <mxPoint x="270" y="321" />
            </Array>
          </mxGeometry>
        </mxCell>
        <mxCell id="qFbmU129dsHxOHRwsqZK-21" value="" style="ellipse;whiteSpace=wrap;html=1;rounded=0;shadow=0;labelBackgroundColor=none;strokeWidth=1;fontFamily=Verdana;fontSize=8;align=center;" parent="1" vertex="1">
          <mxGeometry x="440" y="307" width="30" height="30" as="geometry" />
        </mxCell>
        <mxCell id="qFbmU129dsHxOHRwsqZK-22" value="Vertical Container" style="swimlane;" parent="1" vertex="1">
          <mxGeometry x="280" y="240" width="120" height="160" as="geometry">
            <mxRectangle x="310" y="160" width="130" height="23" as="alternateBounds" />
          </mxGeometry>
        </mxCell>
        <mxCell id="qFbmU129dsHxOHRwsqZK-23" value="" style="line;strokeWidth=1;html=1;" parent="1" vertex="1">
          <mxGeometry x="400" y="316" width="40" height="10" as="geometry" />
        </mxCell>
        <mxCell id="qFbmU129dsHxOHRwsqZK-24" style="edgeStyle=orthogonalEdgeStyle;rounded=0;html=1;labelBackgroundColor=none;startArrow=none;startFill=0;startSize=5;endArrow=classicThin;endFill=1;endSize=5;jettySize=auto;orthogonalLoop=1;strokeWidth=1;fontFamily=Verdana;fontSize=8" parent="1" edge="1">
          <mxGeometry relative="1" as="geometry">
            <mxPoint x="470" y="320.79999999999995" as="sourcePoint" />
            <mxPoint x="520" y="321" as="targetPoint" />
            <Array as="points">
              <mxPoint x="510" y="321" />
              <mxPoint x="510" y="321" />
            </Array>
          </mxGeometry>
        </mxCell>
        <mxCell id="qFbmU129dsHxOHRwsqZK-25" value="" style="ellipse;whiteSpace=wrap;html=1;rounded=0;shadow=0;labelBackgroundColor=none;strokeWidth=1;fontFamily=Verdana;fontSize=8;align=center;" parent="1" vertex="1">
          <mxGeometry x="680" y="307" width="30" height="30" as="geometry" />
        </mxCell>
        <mxCell id="qFbmU129dsHxOHRwsqZK-26" value="Vertical Container" style="swimlane;" parent="1" vertex="1">
          <mxGeometry x="520" y="240" width="120" height="160" as="geometry">
            <mxRectangle x="310" y="160" width="130" height="23" as="alternateBounds" />
          </mxGeometry>
        </mxCell>
        <mxCell id="qFbmU129dsHxOHRwsqZK-27" value="" style="line;strokeWidth=1;html=1;" parent="1" vertex="1">
          <mxGeometry x="640" y="316" width="40" height="10" as="geometry" />
        </mxCell>
        <mxCell id="qFbmU129dsHxOHRwsqZK-28" style="edgeStyle=orthogonalEdgeStyle;rounded=0;html=1;labelBackgroundColor=none;startArrow=none;startFill=0;startSize=5;endArrow=classicThin;endFill=1;endSize=5;jettySize=auto;orthogonalLoop=1;strokeWidth=1;fontFamily=Verdana;fontSize=8" parent="1" edge="1">
          <mxGeometry relative="1" as="geometry">
            <mxPoint x="710" y="320.79999999999995" as="sourcePoint" />
            <mxPoint x="760" y="321" as="targetPoint" />
            <Array as="points">
              <mxPoint x="750" y="321" />
              <mxPoint x="750" y="321" />
            </Array>
          </mxGeometry>
        </mxCell>
        <mxCell id="qFbmU129dsHxOHRwsqZK-29" value="" style="ellipse;whiteSpace=wrap;html=1;rounded=0;shadow=0;labelBackgroundColor=none;strokeWidth=1;fontFamily=Verdana;fontSize=8;align=center;" parent="1" vertex="1">
          <mxGeometry x="920" y="307" width="30" height="30" as="geometry" />
        </mxCell>
        <mxCell id="qFbmU129dsHxOHRwsqZK-30" value="Vertical Container" style="swimlane;" parent="1" vertex="1">
          <mxGeometry x="760" y="240" width="120" height="160" as="geometry">
            <mxRectangle x="310" y="160" width="130" height="23" as="alternateBounds" />
          </mxGeometry>
        </mxCell>
        <mxCell id="qFbmU129dsHxOHRwsqZK-31" value="" style="line;strokeWidth=1;html=1;" parent="1" vertex="1">
          <mxGeometry x="880" y="316" width="40" height="10" as="geometry" />
        </mxCell>
        <mxCell id="qFbmU129dsHxOHRwsqZK-32" style="edgeStyle=orthogonalEdgeStyle;rounded=0;html=1;labelBackgroundColor=none;startArrow=none;startFill=0;startSize=5;endArrow=classicThin;endFill=1;endSize=5;jettySize=auto;orthogonalLoop=1;strokeWidth=1;fontFamily=Verdana;fontSize=8" parent="1" edge="1">
          <mxGeometry relative="1" as="geometry">
            <mxPoint x="950" y="320.79999999999995" as="sourcePoint" />
            <mxPoint x="1000" y="321" as="targetPoint" />
            <Array as="points">
              <mxPoint x="990" y="321" />
              <mxPoint x="990" y="321" />
            </Array>
          </mxGeometry>
        </mxCell>
        <mxCell id="qFbmU129dsHxOHRwsqZK-33" value="" style="ellipse;whiteSpace=wrap;html=1;rounded=0;shadow=0;labelBackgroundColor=none;strokeWidth=1;fontFamily=Verdana;fontSize=8;align=center;" parent="1" vertex="1">
          <mxGeometry x="200" y="507" width="30" height="30" as="geometry" />
        </mxCell>
        <mxCell id="qFbmU129dsHxOHRwsqZK-34" value="Vertical Container" style="swimlane;" parent="1" vertex="1">
          <mxGeometry x="40" y="440" width="120" height="160" as="geometry">
            <mxRectangle x="310" y="160" width="130" height="23" as="alternateBounds" />
          </mxGeometry>
        </mxCell>
        <mxCell id="qFbmU129dsHxOHRwsqZK-35" value="" style="line;strokeWidth=1;html=1;" parent="1" vertex="1">
          <mxGeometry x="160" y="516" width="40" height="10" as="geometry" />
        </mxCell>
        <mxCell id="qFbmU129dsHxOHRwsqZK-36" style="edgeStyle=orthogonalEdgeStyle;rounded=0;html=1;labelBackgroundColor=none;startArrow=none;startFill=0;startSize=5;endArrow=classicThin;endFill=1;endSize=5;jettySize=auto;orthogonalLoop=1;strokeWidth=1;fontFamily=Verdana;fontSize=8" parent="1" edge="1">
          <mxGeometry relative="1" as="geometry">
            <mxPoint x="230" y="520.8" as="sourcePoint" />
            <mxPoint x="280" y="521" as="targetPoint" />
            <Array as="points">
              <mxPoint x="270" y="521" />
              <mxPoint x="270" y="521" />
            </Array>
          </mxGeometry>
        </mxCell>
        <mxCell id="qFbmU129dsHxOHRwsqZK-37" value="" style="ellipse;whiteSpace=wrap;html=1;rounded=0;shadow=0;labelBackgroundColor=none;strokeWidth=1;fontFamily=Verdana;fontSize=8;align=center;" parent="1" vertex="1">
          <mxGeometry x="440" y="507" width="30" height="30" as="geometry" />
        </mxCell>
        <mxCell id="qFbmU129dsHxOHRwsqZK-38" value="Vertical Container" style="swimlane;" parent="1" vertex="1">
          <mxGeometry x="280" y="440" width="120" height="160" as="geometry">
            <mxRectangle x="310" y="160" width="130" height="23" as="alternateBounds" />
          </mxGeometry>
        </mxCell>
        <mxCell id="qFbmU129dsHxOHRwsqZK-39" value="" style="line;strokeWidth=1;html=1;" parent="1" vertex="1">
          <mxGeometry x="400" y="516" width="40" height="10" as="geometry" />
        </mxCell>
        <mxCell id="qFbmU129dsHxOHRwsqZK-40" style="edgeStyle=orthogonalEdgeStyle;rounded=0;html=1;labelBackgroundColor=none;startArrow=none;startFill=0;startSize=5;endArrow=classicThin;endFill=1;endSize=5;jettySize=auto;orthogonalLoop=1;strokeWidth=1;fontFamily=Verdana;fontSize=8" parent="1" edge="1">
          <mxGeometry relative="1" as="geometry">
            <mxPoint x="470" y="520.8" as="sourcePoint" />
            <mxPoint x="520" y="521" as="targetPoint" />
            <Array as="points">
              <mxPoint x="510" y="521" />
              <mxPoint x="510" y="521" />
            </Array>
          </mxGeometry>
        </mxCell>
        <mxCell id="qFbmU129dsHxOHRwsqZK-41" value="" style="ellipse;whiteSpace=wrap;html=1;rounded=0;shadow=0;labelBackgroundColor=none;strokeWidth=1;fontFamily=Verdana;fontSize=8;align=center;" parent="1" vertex="1">
          <mxGeometry x="680" y="507" width="30" height="30" as="geometry" />
        </mxCell>
        <mxCell id="qFbmU129dsHxOHRwsqZK-42" value="Vertical Container" style="swimlane;" parent="1" vertex="1">
          <mxGeometry x="520" y="440" width="120" height="160" as="geometry">
            <mxRectangle x="310" y="160" width="130" height="23" as="alternateBounds" />
          </mxGeometry>
        </mxCell>
        <mxCell id="qFbmU129dsHxOHRwsqZK-43" value="" style="line;strokeWidth=1;html=1;" parent="1" vertex="1">
          <mxGeometry x="640" y="516" width="40" height="10" as="geometry" />
        </mxCell>
        <mxCell id="qFbmU129dsHxOHRwsqZK-44" style="edgeStyle=orthogonalEdgeStyle;rounded=0;html=1;labelBackgroundColor=none;startArrow=none;startFill=0;startSize=5;endArrow=classicThin;endFill=1;endSize=5;jettySize=auto;orthogonalLoop=1;strokeWidth=1;fontFamily=Verdana;fontSize=8" parent="1" edge="1">
          <mxGeometry relative="1" as="geometry">
            <mxPoint x="710" y="520.8" as="sourcePoint" />
            <mxPoint x="760" y="521" as="targetPoint" />
            <Array as="points">
              <mxPoint x="750" y="521" />
              <mxPoint x="750" y="521" />
            </Array>
          </mxGeometry>
        </mxCell>
        <mxCell id="qFbmU129dsHxOHRwsqZK-45" value="" style="ellipse;whiteSpace=wrap;html=1;rounded=0;shadow=0;labelBackgroundColor=none;strokeWidth=1;fontFamily=Verdana;fontSize=8;align=center;" parent="1" vertex="1">
          <mxGeometry x="920" y="507" width="30" height="30" as="geometry" />
        </mxCell>
        <mxCell id="qFbmU129dsHxOHRwsqZK-46" value="Vertical Container" style="swimlane;" parent="1" vertex="1">
          <mxGeometry x="760" y="440" width="120" height="160" as="geometry">
            <mxRectangle x="310" y="160" width="130" height="23" as="alternateBounds" />
          </mxGeometry>
        </mxCell>
        <mxCell id="qFbmU129dsHxOHRwsqZK-47" value="" style="line;strokeWidth=1;html=1;" parent="1" vertex="1">
          <mxGeometry x="880" y="516" width="40" height="10" as="geometry" />
        </mxCell>
        <mxCell id="qFbmU129dsHxOHRwsqZK-48" style="edgeStyle=orthogonalEdgeStyle;rounded=0;html=1;labelBackgroundColor=none;startArrow=none;startFill=0;startSize=5;endArrow=classicThin;endFill=1;endSize=5;jettySize=auto;orthogonalLoop=1;strokeWidth=1;fontFamily=Verdana;fontSize=8" parent="1" edge="1">
          <mxGeometry relative="1" as="geometry">
            <mxPoint x="950" y="520.8" as="sourcePoint" />
            <mxPoint x="1000" y="521" as="targetPoint" />
            <Array as="points">
              <mxPoint x="990" y="521" />
              <mxPoint x="990" y="521" />
            </Array>
          </mxGeometry>
        </mxCell>
        <mxCell id="qFbmU129dsHxOHRwsqZK-49" value="" style="ellipse;whiteSpace=wrap;html=1;rounded=0;shadow=0;labelBackgroundColor=none;strokeWidth=1;fontFamily=Verdana;fontSize=8;align=center;" parent="1" vertex="1">
          <mxGeometry x="200" y="707" width="30" height="30" as="geometry" />
        </mxCell>
        <mxCell id="qFbmU129dsHxOHRwsqZK-50" value="Vertical Container" style="swimlane;" parent="1" vertex="1">
          <mxGeometry x="40" y="640" width="120" height="160" as="geometry">
            <mxRectangle x="310" y="160" width="130" height="23" as="alternateBounds" />
          </mxGeometry>
        </mxCell>
        <mxCell id="qFbmU129dsHxOHRwsqZK-51" value="" style="line;strokeWidth=1;html=1;" parent="1" vertex="1">
          <mxGeometry x="160" y="716" width="40" height="10" as="geometry" />
        </mxCell>
        <mxCell id="qFbmU129dsHxOHRwsqZK-52" style="edgeStyle=orthogonalEdgeStyle;rounded=0;html=1;labelBackgroundColor=none;startArrow=none;startFill=0;startSize=5;endArrow=classicThin;endFill=1;endSize=5;jettySize=auto;orthogonalLoop=1;strokeWidth=1;fontFamily=Verdana;fontSize=8" parent="1" edge="1">
          <mxGeometry relative="1" as="geometry">
            <mxPoint x="230" y="720.8" as="sourcePoint" />
            <mxPoint x="280" y="721" as="targetPoint" />
            <Array as="points">
              <mxPoint x="270" y="721" />
              <mxPoint x="270" y="721" />
            </Array>
          </mxGeometry>
        </mxCell>
        <mxCell id="qFbmU129dsHxOHRwsqZK-53" value="" style="ellipse;whiteSpace=wrap;html=1;rounded=0;shadow=0;labelBackgroundColor=none;strokeWidth=1;fontFamily=Verdana;fontSize=8;align=center;" parent="1" vertex="1">
          <mxGeometry x="440" y="707" width="30" height="30" as="geometry" />
        </mxCell>
        <mxCell id="qFbmU129dsHxOHRwsqZK-54" value="Vertical Container" style="swimlane;" parent="1" vertex="1">
          <mxGeometry x="280" y="640" width="120" height="160" as="geometry">
            <mxRectangle x="310" y="160" width="130" height="23" as="alternateBounds" />
          </mxGeometry>
        </mxCell>
        <mxCell id="qFbmU129dsHxOHRwsqZK-55" value="" style="line;strokeWidth=1;html=1;" parent="1" vertex="1">
          <mxGeometry x="400" y="716" width="40" height="10" as="geometry" />
        </mxCell>
        <mxCell id="qFbmU129dsHxOHRwsqZK-56" style="edgeStyle=orthogonalEdgeStyle;rounded=0;html=1;labelBackgroundColor=none;startArrow=none;startFill=0;startSize=5;endArrow=classicThin;endFill=1;endSize=5;jettySize=auto;orthogonalLoop=1;strokeWidth=1;fontFamily=Verdana;fontSize=8" parent="1" edge="1">
          <mxGeometry relative="1" as="geometry">
            <mxPoint x="470" y="720.8" as="sourcePoint" />
            <mxPoint x="520" y="721" as="targetPoint" />
            <Array as="points">
              <mxPoint x="510" y="721" />
              <mxPoint x="510" y="721" />
            </Array>
          </mxGeometry>
        </mxCell>
        <mxCell id="qFbmU129dsHxOHRwsqZK-57" value="" style="ellipse;whiteSpace=wrap;html=1;rounded=0;shadow=0;labelBackgroundColor=none;strokeWidth=1;fontFamily=Verdana;fontSize=8;align=center;" parent="1" vertex="1">
          <mxGeometry x="680" y="707" width="30" height="30" as="geometry" />
        </mxCell>
        <mxCell id="qFbmU129dsHxOHRwsqZK-58" value="Vertical Container" style="swimlane;" parent="1" vertex="1">
          <mxGeometry x="520" y="640" width="120" height="160" as="geometry">
            <mxRectangle x="310" y="160" width="130" height="23" as="alternateBounds" />
          </mxGeometry>
        </mxCell>
        <mxCell id="qFbmU129dsHxOHRwsqZK-59" value="" style="line;strokeWidth=1;html=1;" parent="1" vertex="1">
          <mxGeometry x="640" y="716" width="40" height="10" as="geometry" />
        </mxCell>
        <mxCell id="qFbmU129dsHxOHRwsqZK-60" style="edgeStyle=orthogonalEdgeStyle;rounded=0;html=1;labelBackgroundColor=none;startArrow=none;startFill=0;startSize=5;endArrow=classicThin;endFill=1;endSize=5;jettySize=auto;orthogonalLoop=1;strokeWidth=1;fontFamily=Verdana;fontSize=8" parent="1" edge="1">
          <mxGeometry relative="1" as="geometry">
            <mxPoint x="710" y="720.8" as="sourcePoint" />
            <mxPoint x="760" y="721" as="targetPoint" />
            <Array as="points">
              <mxPoint x="750" y="721" />
              <mxPoint x="750" y="721" />
            </Array>
          </mxGeometry>
        </mxCell>
        <mxCell id="qFbmU129dsHxOHRwsqZK-61" value="" style="ellipse;whiteSpace=wrap;html=1;rounded=0;shadow=0;labelBackgroundColor=none;strokeWidth=1;fontFamily=Verdana;fontSize=8;align=center;" parent="1" vertex="1">
          <mxGeometry x="920" y="707" width="30" height="30" as="geometry" />
        </mxCell>
        <mxCell id="qFbmU129dsHxOHRwsqZK-62" value="Vertical Container" style="swimlane;" parent="1" vertex="1">
          <mxGeometry x="760" y="640" width="120" height="160" as="geometry">
            <mxRectangle x="310" y="160" width="130" height="23" as="alternateBounds" />
          </mxGeometry>
        </mxCell>
        <mxCell id="qFbmU129dsHxOHRwsqZK-63" value="" style="line;strokeWidth=1;html=1;" parent="1" vertex="1">
          <mxGeometry x="880" y="716" width="40" height="10" as="geometry" />
        </mxCell>
        <mxCell id="qFbmU129dsHxOHRwsqZK-64" style="edgeStyle=orthogonalEdgeStyle;rounded=0;html=1;labelBackgroundColor=none;startArrow=none;startFill=0;startSize=5;endArrow=classicThin;endFill=1;endSize=5;jettySize=auto;orthogonalLoop=1;strokeWidth=1;fontFamily=Verdana;fontSize=8" parent="1" edge="1">
          <mxGeometry relative="1" as="geometry">
            <mxPoint x="950" y="720.8" as="sourcePoint" />
            <mxPoint x="1000" y="721" as="targetPoint" />
            <Array as="points">
              <mxPoint x="990" y="721" />
              <mxPoint x="990" y="721" />
            </Array>
          </mxGeometry>
        </mxCell>
        <mxCell id="XD4_PgO550jXkSveCVUb-1" value="Tap &#39;select seats&#39;" style="text;html=1;strokeColor=none;fillColor=none;align=center;verticalAlign=middle;whiteSpace=wrap;rounded=0;labelBackgroundColor=none;labelBorderColor=none;" parent="1" vertex="1">
          <mxGeometry x="185" y="144" width="60" height="30" as="geometry" />
        </mxCell>
        <mxCell id="XD4_PgO550jXkSveCVUb-2" value="Tap on desired seat" style="text;html=1;strokeColor=none;fillColor=none;align=center;verticalAlign=middle;whiteSpace=wrap;rounded=0;labelBackgroundColor=none;labelBorderColor=none;" parent="1" vertex="1">
          <mxGeometry x="418" y="144" width="75" height="30" as="geometry" />
        </mxCell>
        <mxCell id="XD4_PgO550jXkSveCVUb-3" value="Tap &#39;done&#39;" style="text;html=1;strokeColor=none;fillColor=none;align=center;verticalAlign=middle;whiteSpace=wrap;rounded=0;labelBackgroundColor=none;labelBorderColor=none;" parent="1" vertex="1">
          <mxGeometry x="660.5" y="139" width="75" height="30" as="geometry" />
        </mxCell>
      </root>
    </mxGraphModel>
  </diagram>
  <diagram id="YfM0O77Dv1Ys8VYB8yUR" name="Page-2">
    <mxGraphModel dx="1182" dy="764" grid="1" gridSize="10" guides="1" tooltips="1" connect="1" arrows="1" fold="1" page="1" pageScale="1" pageWidth="850" pageHeight="1100" math="0" shadow="0">
      <root>
        <mxCell id="9tKth9fGsLm5y67AK-iP-0" />
        <mxCell id="9tKth9fGsLm5y67AK-iP-1" parent="9tKth9fGsLm5y67AK-iP-0" />
      </root>
    </mxGraphModel>
  </diagram>
</mxfile>
